  0
SECTION
  2
HEADER
  9
$ACADVER
  1
AC1015
  9
$ACADMAINTVER
 70
     6
  9
$DWGCODEPAGE
  3
ANSI_1252
  9
$INSBASE
 10
0.0
 20
0.0
 30
0.0
  9
$EXTMIN
 10
-1.1559807544
 20
-0.8705160591
 30
0.0
  9
$EXTMAX
 10
1.2279564045
 20
0.8956405851
 30
0.0
  9
$LIMMIN
 10
0.0
 20
0.0
  9
$LIMMAX
 10
12.0
 20
9.0
  9
$ORTHOMODE
 70
     0
  9
$REGENMODE
 70
     1
  9
$FILLMODE
 70
     1
  9
$QTEXTMODE
 70
     0
  9
$MIRRTEXT
 70
     1
  9
$LTSCALE
 40
1.0
  9
$ATTMODE
 70
     1
  9
$TEXTSIZE
 40
0.1377952756
  9
$TRACEWID
 40
0.05
  9
$TEXTSTYLE
  7
Standard
  9
$CLAYER
  8
0
  9
$CELTYPE
  6
ByLayer
  9
$CECOLOR
 62
   256
  9
$CELTSCALE
 40
1.0
  9
$DISPSILH
 70
     0
  9
$DIMSCALE
 40
1.0
  9
$DIMASZ
 40
0.13
  9
$DIMEXO
 40
0.0393700787
  9
$DIMDLI
 40
0.38
  9
$DIMRND
 40
0.0
  9
$DIMDLE
 40
0.0
  9
$DIMEXE
 40
0.0393700787
  9
$DIMTP
 40
0.0
  9
$DIMTM
 40
0.0
  9
$DIMTXT
 40
0.1377952756
  9
$DIMCEN
 40
0.09
  9
$DIMTSZ
 40
0.0
  9
$DIMTOL
 70
     0
  9
$DIMLIM
 70
     0
  9
$DIMTIH
 70
     1
  9
$DIMTOH
 70
     1
  9
$DIMSE1
 70
     0
  9
$DIMSE2
 70
     0
  9
$DIMTAD
 70
     1
  9
$DIMZIN
 70
     1
  9
$DIMBLK
  1

  9
$DIMASO
 70
     1
  9
$DIMSHO
 70
     1
  9
$DIMPOST
  1

  9
$DIMAPOST
  1

  9
$DIMALT
 70
     0
  9
$DIMALTD
 70
     2
  9
$DIMALTF
 40
25.4
  9
$DIMLFAC
 40
1.0
  9
$DIMTOFL
 70
     0
  9
$DIMTVP
 40
0.0
  9
$DIMTIX
 70
     0
  9
$DIMSOXD
 70
     0
  9
$DIMSAH
 70
     0
  9
$DIMBLK1
  1

  9
$DIMBLK2
  1

  9
$DIMSTYLE
  2
Standard
  9
$DIMCLRD
 70
     0
  9
$DIMCLRE
 70
     0
  9
$DIMCLRT
 70
     0
  9
$DIMTFAC
 40
1.0
  9
$DIMGAP
 40
0.06
  9
$DIMJUST
 70
     0
  9
$DIMSD1
 70
     0
  9
$DIMSD2
 70
     0
  9
$DIMTOLJ
 70
     1
  9
$DIMTZIN
 70
     1
  9
$DIMALTZ
 70
     0
  9
$DIMALTTZ
 70
     0
  9
$DIMUPT
 70
     0
  9
$DIMDEC
 70
     2
  9
$DIMTDEC
 70
     2
  9
$DIMALTU
 70
     2
  9
$DIMALTTD
 70
     2
  9
$DIMTXSTY
  7
Standard
  9
$DIMAUNIT
 70
     0
  9
$DIMADEC
 70
     2
  9
$DIMALTRND
 40
0.0
  9
$DIMAZIN
 70
     0
  9
$DIMDSEP
 70
    46
  9
$DIMATFIT
 70
     3
  9
$DIMFRAC
 70
     0
  9
$DIMLDRBLK
  1

  9
$DIMLUNIT
 70
     2
  9
$DIMLWD
 70
    -2
  9
$DIMLWE
 70
    -2
  9
$DIMTMOVE
 70
     0
  9
$LUNITS
 70
     2
  9
$LUPREC
 70
     2
  9
$SKETCHINC
 40
0.1
  9
$FILLETRAD
 40
0.5
  9
$AUNITS
 70
     0
  9
$AUPREC
 70
     2
  9
$MENU
  1
.
  9
$ELEVATION
 40
0.0
  9
$PELEVATION
 40
0.0
  9
$THICKNESS
 40
0.0
  9
$LIMCHECK
 70
     0
  9
$CHAMFERA
 40
0.0
  9
$CHAMFERB
 40
0.0
  9
$CHAMFERC
 40
0.0
  9
$CHAMFERD
 40
0.0
  9
$SKPOLY
 70
     0
  9
$TDCREATE
 40
2458682.889512951
  9
$TDUCREATE
 40
2458683.139512951
  9
$TDUPDATE
 40
2458682.88956353
  9
$TDUUPDATE
 40
2458683.13956353
  9
$TDINDWG
 40
0.0000000116
  9
$TDUSRTIMER
 40
0.0000000116
  9
$USRTIMER
 70
     1
  9
$ANGBASE
 50
0.0
  9
$ANGDIR
 70
     0
  9
$PDMODE
 70
     0
  9
$PDSIZE
 40
-1.0
  9
$PLINEWID
 40
0.0
  9
$SPLFRAME
 70
     0
  9
$SPLINETYPE
 70
     6
  9
$SPLINESEGS
 70
     8
  9
$HANDSEED
  5
140
  9
$SURFTAB1
 70
     6
  9
$SURFTAB2
 70
     6
  9
$SURFTYPE
 70
     6
  9
$SURFU
 70
     6
  9
$SURFV
 70
     6
  9
$UCSBASE
  2

  9
$UCSNAME
  2

  9
$UCSORG
 10
0.0
 20
0.0
 30
0.0
  9
$UCSXDIR
 10
1.0
 20
0.0
 30
0.0
  9
$UCSYDIR
 10
0.0
 20
1.0
 30
0.0
  9
$UCSORTHOREF
  2

  9
$UCSORTHOVIEW
 70
     0
  9
$UCSORGTOP
 10
0.0
 20
0.0
 30
0.0
  9
$UCSORGBOTTOM
 10
0.0
 20
0.0
 30
0.0
  9
$UCSORGLEFT
 10
0.0
 20
0.0
 30
0.0
  9
$UCSORGRIGHT
 10
0.0
 20
0.0
 30
0.0
  9
$UCSORGFRONT
 10
0.0
 20
0.0
 30
0.0
  9
$UCSORGBACK
 10
0.0
 20
0.0
 30
0.0
  9
$PUCSBASE
  2

  9
$PUCSNAME
  2

  9
$PUCSORG
 10
0.0
 20
0.0
 30
0.0
  9
$PUCSXDIR
 10
1.0
 20
0.0
 30
0.0
  9
$PUCSYDIR
 10
0.0
 20
1.0
 30
0.0
  9
$PUCSORTHOREF
  2

  9
$PUCSORTHOVIEW
 70
     0
  9
$PUCSORGTOP
 10
0.0
 20
0.0
 30
0.0
  9
$PUCSORGBOTTOM
 10
0.0
 20
0.0
 30
0.0
  9
$PUCSORGLEFT
 10
0.0
 20
0.0
 30
0.0
  9
$PUCSORGRIGHT
 10
0.0
 20
0.0
 30
0.0
  9
$PUCSORGFRONT
 10
0.0
 20
0.0
 30
0.0
  9
$PUCSORGBACK
 10
0.0
 20
0.0
 30
0.0
  9
$USERI1
 70
     0
  9
$USERI2
 70
     0
  9
$USERI3
 70
     0
  9
$USERI4
 70
     0
  9
$USERI5
 70
     0
  9
$USERR1
 40
0.0
  9
$USERR2
 40
0.0
  9
$USERR3
 40
0.0
  9
$USERR4
 40
0.0
  9
$USERR5
 40
0.0
  9
$WORLDVIEW
 70
     1
  9
$SHADEDGE
 70
     3
  9
$SHADEDIF
 70
    70
  9
$TILEMODE
 70
     1
  9
$MAXACTVP
 70
    64
  9
$PINSBASE
 10
0.0
 20
0.0
 30
0.0
  9
$PLIMCHECK
 70
     0
  9
$PEXTMIN
 10
1.0000000000E+20
 20
1.0000000000E+20
 30
1.0000000000E+20
  9
$PEXTMAX
 10
-1.0000000000E+20
 20
-1.0000000000E+20
 30
-1.0000000000E+20
  9
$PLIMMIN
 10
0.0
 20
0.0
  9
$PLIMMAX
 10
12.0
 20
9.0
  9
$UNITMODE
 70
     0
  9
$VISRETAIN
 70
     1
  9
$PLINEGEN
 70
     0
  9
$PSLTSCALE
 70
     1
  9
$TREEDEPTH
 70
  3020
  9
$CMLSTYLE
  2
Standard
  9
$CMLJUST
 70
     0
  9
$CMLSCALE
 40
1.0
  9
$PROXYGRAPHICS
 70
     1
  9
$MEASUREMENT
 70
     0
  9
$CELWEIGHT
370
    -1
  9
$ENDCAPS
280
     0
  9
$JOINSTYLE
280
     0
  9
$LWDISPLAY
290
     1
  9
$INSUNITS
 70
     1
  9
$HYPERLINKBASE
  1

  9
$STYLESHEET
  1

  9
$XEDIT
290
     1
  9
$CEPSNTYPE
380
     0
  9
$PSTYLEMODE
290
     1
  9
$FINGERPRINTGUID
  2
{AC1E12B9-474A-41D4-9408-5639E7D38517}
  9
$VERSIONGUID
  2
{FAEB1C32-E019-11D5-929B-00C0DF256EC4}
  9
$EXTNAMES
290
     1
  9
$PSVPSCALE
 40
0.0
  9
$OLESTARTUP
290
     0
  0
ENDSEC
  0
SECTION
  2
CLASSES
  0
CLASS
  1
ACDBDICTIONARYWDFLT
  2
AcDbDictionaryWithDefault
  3
ObjectDBX Classes
 90
        0
280
     0
281
     0
  0
CLASS
  1
VISUALSTYLE
  2
AcDbVisualStyle
  3
ObjectDBX Classes
 90
     4095
280
     0
281
     0
  0
CLASS
  1
MATERIAL
  2
AcDbMaterial
  3
ObjectDBX Classes
 90
     1153
280
     0
281
     0
  0
CLASS
  1
SCALE
  2
AcDbScale
  3
ObjectDBX Classes
 90
     1153
280
     0
281
     0
  0
CLASS
  1
TABLESTYLE
  2
AcDbTableStyle
  3
ObjectDBX Classes
 90
     4095
280
     0
281
     0
  0
CLASS
  1
MLEADERSTYLE
  2
AcDbMLeaderStyle
  3
ACDB_MLEADERSTYLE_CLASS
 90
     4095
280
     0
281
     0
  0
CLASS
  1
SUN
  2
AcDbSun
  3
SCENEOE
 90
     1153
280
     0
281
     0
  0
CLASS
  1
ACDBPLACEHOLDER
  2
AcDbPlaceHolder
  3
ObjectDBX Classes
 90
        0
280
     0
281
     0
  0
CLASS
  1
LAYOUT
  2
AcDbLayout
  3
ObjectDBX Classes
 90
        0
280
     0
281
     0
  0
ENDSEC
  0
SECTION
  2
TABLES
  0
TABLE
  2
VPORT
  5
8
330
0
100
AcDbSymbolTable
 70
     1
  0
VPORT
  5
29
330
8
100
AcDbSymbolTableRecord
100
AcDbViewportTableRecord
  2
*Active
 70
     0
 10
0.0
 20
0.0
 11
1.0
 21
1.0
 12
0.0359878251
 22
0.012562263
 13
0.0
 23
0.0
 14
0.5
 24
0.5
 15
0.5
 25
0.5
 16
0.0
 26
0.0
 36
1.0
 17
0.0
 27
0.0
 37
0.0
 40
1.801479777
 41
1.3497880648
 42
50.0
 43
0.0
 44
0.0
 50
0.0
 51
0.0
 71
     0
 72
   100
 73
     1
 74
     3
 75
     0
 76
     0
 77
     0
 78
     0
281
     0
 65
     1
110
0.0
120
0.0
130
0.0
111
1.0
121
0.0
131
0.0
112
0.0
122
1.0
132
0.0
 79
     0
146
0.0
  0
ENDTAB
  0
TABLE
  2
LTYPE
  5
5
330
0
100
AcDbSymbolTable
 70
     6
  0
LTYPE
  5
14
330
5
100
AcDbSymbolTableRecord
100
AcDbLinetypeTableRecord
  2
ByBlock
 70
     0
  3

 72
    65
 73
     0
 40
0.0
  0
LTYPE
  5
15
330
5
100
AcDbSymbolTableRecord
100
AcDbLinetypeTableRecord
  2
ByLayer
 70
     0
  3

 72
    65
 73
     0
 40
0.0
  0
LTYPE
  5
16
330
5
100
AcDbSymbolTableRecord
100
AcDbLinetypeTableRecord
  2
Continuous
 70
     0
  3
Solid line
 72
    65
 73
     0
 40
0.0
  0
LTYPE
  5
6E
330
5
100
AcDbSymbolTableRecord
100
AcDbLinetypeTableRecord
  2
HIDDEN
 70
     0
  3
Hidden __ __ __ __ __ __ __ __ __ __ __ __ __ __
 72
    65
 73
     2
 40
0.075
 49
0.05
 74
     0
 49
-0.025
 74
     0
  0
LTYPE
  5
6F
330
5
100
AcDbSymbolTableRecord
100
AcDbLinetypeTableRecord
  2
PHANTOM
 70
     0
  3
Phantom ______  __  __  ______  __  __  ______
 72
    65
 73
     6
 40
0.5
 49
0.25
 74
     0
 49
-0.05
 74
     0
 49
0.05
 74
     0
 49
-0.05
 74
     0
 49
0.05
 74
     0
 49
-0.05
 74
     0
  0
LTYPE
  5
70
330
5
100
AcDbSymbolTableRecord
100
AcDbLinetypeTableRecord
  2
CENTER
 70
     0
  3
Center ____ _ ____ _ ____ _ ____ _ ____ _ ____
 72
    65
 73
     4
 40
0.4
 49
0.25
 74
     0
 49
-0.05
 74
     0
 49
0.05
 74
     0
 49
-0.05
 74
     0
  0
LTYPE
  5
71
330
5
100
AcDbSymbolTableRecord
100
AcDbLinetypeTableRecord
  2
CENTERX2
 70
     0
  3
Center (2x) ________  __  ________  __  _____
 72
    65
 73
     4
 40
0.8
 49
0.5
 74
     0
 49
-0.1
 74
     0
 49
0.1
 74
     0
 49
-0.1
 74
     0
  0
LTYPE
  5
72
330
5
100
AcDbSymbolTableRecord
100
AcDbLinetypeTableRecord
  2
DOT2
 70
     0
  3
Dot (.5x) ........................................
 72
    65
 73
     2
 40
0.025
 49
0.0
 74
     0
 49
-0.025
 74
     0
  0
ENDTAB
  0
TABLE
  2
LAYER
  5
2
330
0
100
AcDbSymbolTable
 70
     1
  0
LAYER
  5
10
330
2
100
AcDbSymbolTableRecord
100
AcDbLayerTableRecord
  2
0
 70
     0
 62
     7
  6
Continuous
370
    -3
390
F
  0
ENDTAB
  0
TABLE
  2
STYLE
  5
3
330
0
100
AcDbSymbolTable
 70
     2
  0
STYLE
  5
11
330
3
100
AcDbSymbolTableRecord
100
AcDbTextStyleTableRecord
  2
Standard
 70
     0
 40
0.0
 41
1.0
 50
0.0
 71
     0
 42
0.1377952756
  3
txt
  4

  0
STYLE
  5
13D
330
3
100
AcDbSymbolTableRecord
100
AcDbTextStyleTableRecord
  2
SLDTEXTSTYLE0
 70
     0
 40
0.0
 41
0.7
 50
0.0
 71
     0
 42
0.1377952756
  3
TXT
  4

  0
ENDTAB
  0
TABLE
  2
VIEW
  5
6
330
0
100
AcDbSymbolTable
 70
     0
  0
ENDTAB
  0
TABLE
  2
UCS
  5
7
330
0
100
AcDbSymbolTable
 70
     0
  0
ENDTAB
  0
TABLE
  2
APPID
  5
9
330
0
100
AcDbSymbolTable
 70
     1
  0
APPID
  5
12
330
9
100
AcDbSymbolTableRecord
100
AcDbRegAppTableRecord
  2
ACAD
 70
     0
  0
ENDTAB
  0
TABLE
  2
DIMSTYLE
  5
A
330
0
100
AcDbSymbolTable
 70
     1
100
AcDbDimStyleTable
  0
DIMSTYLE
105
27
330
A
100
AcDbSymbolTableRecord
100
AcDbDimStyleTableRecord
  2
Standard
 70
     0
178
     0
340
11
  0
ENDTAB
  0
TABLE
  2
BLOCK_RECORD
  5
1
330
0
100
AcDbSymbolTable
 70
     1
  0
BLOCK_RECORD
  5
1F
330
1
100
AcDbSymbolTableRecord
100
AcDbBlockTableRecord
  2
*Model_Space
340
22
  0
BLOCK_RECORD
  5
1B
330
1
100
AcDbSymbolTableRecord
100
AcDbBlockTableRecord
  2
*Paper_Space
340
1E
  0
BLOCK_RECORD
  5
23
330
1
100
AcDbSymbolTableRecord
100
AcDbBlockTableRecord
  2
*Paper_Space0
340
26
  0
ENDTAB
  0
ENDSEC
  0
SECTION
  2
BLOCKS
  0
BLOCK
  5
20
330
1F
100
AcDbEntity
  8
0
100
AcDbBlockBegin
  2
*Model_Space
 70
     0
 10
0.0
 20
0.0
 30
0.0
  3
*Model_Space
  1

  0
ENDBLK
  5
21
330
1F
100
AcDbEntity
  8
0
100
AcDbBlockEnd
  0
BLOCK
  5
1C
330
1B
100
AcDbEntity
 67
     1
  8
0
100
AcDbBlockBegin
  2
*Paper_Space
 70
     0
 10
0.0
 20
0.0
 30
0.0
  3
*Paper_Space
  1

  0
ENDBLK
  5
1D
330
1B
100
AcDbEntity
 67
     1
  8
0
100
AcDbBlockEnd
  0
BLOCK
  5
24
330
23
100
AcDbEntity
  8
0
100
AcDbBlockBegin
  2
*Paper_Space0
 70
     0
 10
0.0
 20
0.0
 30
0.0
  3
*Paper_Space0
  1

  0
ENDBLK
  5
25
330
23
100
AcDbEntity
  8
0
100
AcDbBlockEnd
  0
ENDSEC
  0
SECTION
  2
ENTITIES
  0
CIRCLE
  5
73
330
1F
100
AcDbEntity
  8
0
  6
Continuous
 62
     7
100
AcDbCircle
 10
-0.5050421491
 20
-0.7910660452
 30
0.0
 40
0.0111404293053314
  0
CIRCLE
  5
74
330
1F
100
AcDbEntity
  8
0
  6
Continuous
 62
     7
100
AcDbCircle
 10
-0.4709081737
 20
-0.7827911421
 30
0.0
 40
0.011585069637745
  0
ARC
  5
75
330
1F
100
AcDbEntity
  8
0
  6
Continuous
 62
     7
100
AcDbCircle
 10
-0.9224900236
 20
-0.1607857119
 30
0.0
 40
0.2198702424239875
100
AcDbArc
 50
262.1762892681
 51
277.8237107319
  0
CIRCLE
  5
76
330
1F
100
AcDbEntity
  8
0
  6
Continuous
 62
     7
100
AcDbCircle
 10
-0.3973297227
 20
-0.2032140169
 30
0.0
 40
0.0117091237244045
  0
ARC
  5
77
330
1F
100
AcDbEntity
  8
0
  6
Continuous
 62
     7
100
AcDbCircle
 10
0.0000929279
 20
0.1134348298
 30
0.0
 40
0.1059618017617901
100
AcDbArc
 50
76.621574084
 51
113.197879338
  0
ARC
  5
78
330
1F
100
AcDbEntity
  8
0
  6
Continuous
 62
     7
100
AcDbCircle
 10
-0.0022935325
 20
0.1968893216
 30
0.0
 40
0.0986772041914777
100
AcDbArc
 50
72.6422363203
 51
125.5160531794
  0
ELLIPSE
  5
79
330
1F
100
AcDbEntity
  8
0
  6
Continuous
 62
     7
100
AcDbEllipse
 10
-0.1315706262
 20
-0.5249587206
 30
0.0
 11
0.0205808417742785
 21
0.0090513305061104
 31
0.0
210
0.0
220
0.0
230
1.0
 40
0.4397939893
 41
0.0
 42
6.283185307179586
  0
LINE
  5
7A
330
1F
100
AcDbEntity
  8
0
  6
Continuous
 62
     7
100
AcDbLine
 10
-0.4740411057
 20
-0.8705160591
 30
0.0
 11
-0.3188939749
 21
-0.5852218092
 31
0.0
  0
LINE
  5
7B
330
1F
100
AcDbEntity
  8
0
  6
Continuous
 62
     7
100
AcDbLine
 10
-0.3188939749
 20
-0.5852218092
 30
0.0
 11
-0.4350704994
 21
-0.5359570804
 31
0.0
  0
LINE
  5
7C
330
1F
100
AcDbEntity
  8
0
  6
Continuous
 62
     7
100
AcDbLine
 10
-0.4350704994
 20
-0.5359570804
 30
0.0
 11
-0.6152176417
 21
-0.7763983684
 31
0.0
  0
LINE
  5
7D
330
1F
100
AcDbEntity
  8
0
  6
Continuous
 62
     7
100
AcDbLine
 10
-0.6152176417
 20
-0.7763983684
 30
0.0
 11
-0.4740411057
 21
-0.8705160591
 31
0.0
  0
LINE
  5
7E
330
1F
100
AcDbEntity
  8
0
  6
Continuous
 62
     7
100
AcDbLine
 10
-0.4672250599
 20
-0.655397751
 30
0.0
 11
-0.4096259016
 21
-0.691134455
 31
0.0
  0
LINE
  5
7F
330
1F
100
AcDbEntity
  8
0
  6
Continuous
 62
     7
100
AcDbLine
 10
-0.4096259016
 20
-0.691134455
 30
0.0
 11
-0.3604353795
 21
-0.6032642062
 31
0.0
  0
LINE
  5
80
330
1F
100
AcDbEntity
  8
0
  6
Continuous
 62
     7
100
AcDbLine
 10
-0.3604353795
 20
-0.6032642062
 30
0.0
 11
-0.4197162651
 21
-0.59485557
 31
0.0
  0
LINE
  5
81
330
1F
100
AcDbEntity
  8
0
  6
Continuous
 62
     7
100
AcDbLine
 10
-0.4197162651
 20
-0.59485557
 30
0.0
 11
-0.4672250599
 21
-0.655397751
 31
0.0
  0
LINE
  5
82
330
1F
100
AcDbEntity
  8
0
  6
Continuous
 62
     7
100
AcDbLine
 10
-0.499525547
 20
-0.702455624
 30
0.0
 11
-0.5429687886
 21
-0.7527946182
 31
0.0
  0
LINE
  5
83
330
1F
100
AcDbEntity
  8
0
  6
Continuous
 62
     7
100
AcDbLine
 10
-0.5429687886
 20
-0.7148679787
 30
0.0
 11
-0.4946985202
 21
-0.7472780161
 31
0.0
  0
LINE
  5
84
330
1F
100
AcDbEntity
  8
0
  6
Continuous
 62
     7
100
AcDbLine
 10
-0.6357258178
 20
0.0814515992
 30
0.0
 11
-0.6526921541
 21
0.1106336976
 31
0.0
  0
LINE
  5
85
330
1F
100
AcDbEntity
  8
0
  6
Continuous
 62
     7
100
AcDbLine
 10
-0.6526921541
 20
0.1106336976
 30
0.0
 11
-0.6289392833
 21
0.1622113598
 31
0.0
  0
LINE
  5
86
330
1F
100
AcDbEntity
  8
0
  6
Continuous
 62
     7
100
AcDbLine
 10
-0.6289392833
 20
0.1622113598
 30
0.0
 11
-0.5929706505
 21
0.1696765477
 31
0.0
  0
LINE
  5
87
330
1F
100
AcDbEntity
  8
0
  6
Continuous
 62
     7
100
AcDbLine
 10
-0.5929706505
 20
0.1696765477
 30
0.0
 11
-0.5603581581
 21
0.1306279469
 31
0.0
  0
LINE
  5
88
330
1F
100
AcDbEntity
  8
0
  6
Continuous
 62
     7
100
AcDbLine
 10
-0.5603581581
 20
0.1306279469
 30
0.0
 11
-0.6357258178
 21
0.0814515992
 31
0.0
  0
LINE
  5
89
330
1F
100
AcDbEntity
  8
0
  6
Continuous
 62
     7
100
AcDbLine
 10
-0.5603581581
 20
0.1306279469
 30
0.0
 11
-0.5255158545
 21
0.0889094792
 31
0.0
  0
LINE
  5
8A
330
1F
100
AcDbEntity
  8
0
  6
Continuous
 62
     7
100
AcDbLine
 10
-0.5255158545
 20
0.0889094792
 30
0.0
 11
-0.5540118641
 21
0.0270324299
 31
0.0
  0
LINE
  5
8B
330
1F
100
AcDbEntity
  8
0
  6
Continuous
 62
     7
100
AcDbLine
 10
-0.5540118641
 20
0.0270324299
 30
0.0
 11
-0.5122108899
 21
0.0190154818
 31
0.0
  0
LINE
  5
8C
330
1F
100
AcDbEntity
  8
0
  6
Continuous
 62
     7
100
AcDbLine
 10
-0.5122108899
 20
0.0190154818
 30
0.0
 11
-0.4549925289
 21
0.0308909907
 31
0.0
  0
LINE
  5
8D
330
1F
100
AcDbEntity
  8
0
  6
Continuous
 62
     7
100
AcDbLine
 10
-0.4549925289
 20
0.0308909907
 30
0.0
 11
-0.4350704994
 21
0.0960426484
 31
0.0
  0
LINE
  5
8E
330
1F
100
AcDbEntity
  8
0
  6
Continuous
 62
     7
100
AcDbLine
 10
-0.4350704994
 20
0.0960426484
 30
0.0
 11
-0.4598194626
 21
0.1036103695
 31
0.0
  0
LINE
  5
8F
330
1F
100
AcDbEntity
  8
0
  6
Continuous
 62
     7
100
AcDbLine
 10
-0.4598194626
 20
0.1036103695
 30
0.0
 11
-0.5255158545
 21
0.0889094792
 31
0.0
  0
LINE
  5
90
330
1F
100
AcDbEntity
  8
0
  6
Continuous
 62
     7
100
AcDbLine
 10
-0.4598194626
 20
0.1036103695
 30
0.0
 11
-0.4598194626
 21
0.1696765477
 31
0.0
  0
LINE
  5
91
330
1F
100
AcDbEntity
  8
0
  6
Continuous
 62
     7
100
AcDbLine
 10
-0.4598194626
 20
0.1696765477
 30
0.0
 11
-0.5050421487
 21
0.1757844294
 31
0.0
  0
LINE
  5
92
330
1F
100
AcDbEntity
  8
0
  6
Continuous
 62
     7
100
AcDbLine
 10
-0.5050421487
 20
0.1757844294
 30
0.0
 11
-0.5603581581
 21
0.1306279469
 31
0.0
  0
LINE
  5
93
330
1F
100
AcDbEntity
  8
0
  6
Continuous
 62
     7
100
AcDbLine
 10
-0.5050421487
 20
0.1757844294
 30
0.0
 11
-0.5255158545
 21
0.2158249827
 31
0.0
  0
LINE
  5
94
330
1F
100
AcDbEntity
  8
0
  6
Continuous
 62
     7
100
AcDbLine
 10
-0.5255158545
 20
0.2158249827
 30
0.0
 11
-0.5603581581
 21
0.2097171013
 31
0.0
  0
LINE
  5
95
330
1F
100
AcDbEntity
  8
0
  6
Continuous
 62
     7
100
AcDbLine
 10
-0.5603581581
 20
0.2097171013
 30
0.0
 11
-0.5827908487
 21
0.1961440323
 31
0.0
  0
LINE
  5
96
330
1F
100
AcDbEntity
  8
0
  6
Continuous
 62
     7
100
AcDbLine
 10
-0.5827908487
 20
0.1961440323
 30
0.0
 11
-0.5929706505
 21
0.1696765477
 31
0.0
  0
LINE
  5
97
330
1F
100
AcDbEntity
  8
0
  6
Continuous
 62
     7
100
AcDbLine
 10
-0.4549925289
 20
0.0308909907
 30
0.0
 11
-0.3396669165
 21
0.0814515992
 31
0.0
  0
LINE
  5
98
330
1F
100
AcDbEntity
  8
0
  6
Continuous
 62
     7
100
AcDbLine
 10
-0.3396669165
 20
0.0814515992
 30
0.0
 11
-0.2308414024
 21
0.0689121895
 31
0.0
  0
LINE
  5
99
330
1F
100
AcDbEntity
  8
0
  6
Continuous
 62
     7
100
AcDbLine
 10
-0.5540118641
 20
0.0270324299
 30
0.0
 11
-0.5857259912
 21
0.0306866872
 31
0.0
  0
LINE
  5
9A
330
1F
100
AcDbEntity
  8
0
  6
Continuous
 62
     7
100
AcDbLine
 10
-0.7078433226
 20
0.1068107971
 30
0.0
 11
-0.7480224801
 21
0.1622113598
 31
0.0
  0
LINE
  5
9B
330
1F
100
AcDbEntity
  8
0
  6
Continuous
 62
     7
100
AcDbLine
 10
-0.7480224801
 20
0.1622113598
 30
0.0
 11
-0.7873068462
 21
0.1473265717
 31
0.0
  0
LINE
  5
9C
330
1F
100
AcDbEntity
  8
0
  6
Continuous
 62
     7
100
AcDbLine
 10
-0.7873068462
 20
0.1473265717
 30
0.0
 11
-0.820748568
 21
0.1121318286
 31
0.0
  0
LINE
  5
9D
330
1F
100
AcDbEntity
  8
0
  6
Continuous
 62
     7
100
AcDbLine
 10
-0.820748568
 20
0.1121318286
 30
0.0
 11
-0.8335110298
 21
0.1297292001
 31
0.0
  0
LINE
  5
9E
330
1F
100
AcDbEntity
  8
0
  6
Continuous
 62
     7
100
AcDbLine
 10
-0.8335110298
 20
0.1297292001
 30
0.0
 11
-0.8271297989
 21
0.1851659757
 31
0.0
  0
LINE
  5
9F
330
1F
100
AcDbEntity
  8
0
  6
Continuous
 62
     7
100
AcDbLine
 10
-0.8271297989
 20
0.1851659757
 30
0.0
 11
-0.7693874756
 21
0.2459351624
 31
0.0
  0
LINE
  5
A0
330
1F
100
AcDbEntity
  8
0
  6
Continuous
 62
     7
100
AcDbLine
 10
-0.7693874756
 20
0.2459351624
 30
0.0
 11
-0.7279329013
 21
0.2155505691
 31
0.0
  0
LINE
  5
A1
330
1F
100
AcDbEntity
  8
0
  6
Continuous
 62
     7
100
AcDbLine
 10
-0.7279329013
 20
0.2155505691
 30
0.0
 11
-0.7480224801
 21
0.1622113598
 31
0.0
  0
LINE
  5
A2
330
1F
100
AcDbEntity
  8
0
  6
Continuous
 62
     7
100
AcDbLine
 10
-0.7279329013
 20
0.2155505691
 30
0.0
 11
-0.6744763337
 21
0.2155505691
 31
0.0
  0
LINE
  5
A3
330
1F
100
AcDbEntity
  8
0
  6
Continuous
 62
     7
100
AcDbLine
 10
-0.6744763337
 20
0.2155505691
 30
0.0
 11
-0.6289392833
 21
0.1622113598
 31
0.0
  0
LINE
  5
A4
330
1F
100
AcDbEntity
  8
0
  6
Continuous
 62
     7
100
AcDbLine
 10
-0.6744763337
 20
0.2155505691
 30
0.0
 11
-0.6744763337
 21
0.2459351625
 31
0.0
  0
LINE
  5
A5
330
1F
100
AcDbEntity
  8
0
  6
Continuous
 62
     7
100
AcDbLine
 10
-0.6744763337
 20
0.2459351625
 30
0.0
 11
-0.5929706504
 21
0.2690550191
 31
0.0
  0
LINE
  5
A6
330
1F
100
AcDbEntity
  8
0
  6
Continuous
 62
     7
100
AcDbLine
 10
-0.5929706504
 20
0.2690550191
 30
0.0
 11
-0.569116891
 21
0.2307428658
 31
0.0
  0
LINE
  5
A7
330
1F
100
AcDbEntity
  8
0
  6
Continuous
 62
     7
100
AcDbLine
 10
-0.569116891
 20
0.2307428658
 30
0.0
 11
-0.554011864
 21
0.2108296113
 31
0.0
  0
LINE
  5
A8
330
1F
100
AcDbEntity
  8
0
  6
Continuous
 62
     7
100
AcDbLine
 10
-0.4350704994
 20
0.0960426484
 30
0.0
 11
-0.3859929919
 21
0.1306279489
 31
0.0
  0
LINE
  5
A9
330
1F
100
AcDbEntity
  8
0
  6
Continuous
 62
     7
100
AcDbLine
 10
-0.3859929919
 20
0.1306279489
 30
0.0
 11
-0.3311480449
 21
0.1133352984
 31
0.0
  0
LINE
  5
AA
330
1F
100
AcDbEntity
  8
0
  6
Continuous
 62
     7
100
AcDbLine
 10
-0.3311480449
 20
0.1133352984
 30
0.0
 11
-0.3396669165
 21
0.0814515992
 31
0.0
  0
LINE
  5
AB
330
1F
100
AcDbEntity
  8
0
  6
Continuous
 62
     7
100
AcDbLine
 10
-0.3859929919
 20
0.1306279489
 30
0.0
 11
-0.3859929919
 21
0.1622113618
 31
0.0
  0
LINE
  5
AC
330
1F
100
AcDbEntity
  8
0
  6
Continuous
 62
     7
100
AcDbLine
 10
-0.3859929919
 20
0.1622113618
 30
0.0
 11
-0.4598194642
 21
0.1961440313
 31
0.0
  0
LINE
  5
AD
330
1F
100
AcDbEntity
  8
0
  6
Continuous
 62
     7
100
AcDbLine
 10
-0.4598194642
 20
0.1961440313
 30
0.0
 11
-0.4712735914
 21
0.1712235691
 31
0.0
  0
LINE
  5
AE
330
1F
100
AcDbEntity
  8
0
  6
Continuous
 62
     7
100
AcDbLine
 10
-0.4598194642
 20
0.1961440313
 30
0.0
 11
-0.4672250609
 21
0.2191716584
 31
0.0
  0
LINE
  5
AF
330
1F
100
AcDbEntity
  8
0
  6
Continuous
 62
     7
100
AcDbLine
 10
-0.4672250609
 20
0.2191716584
 30
0.0
 11
-0.456781712
 21
0.2522935285
 31
0.0
  0
LINE
  5
B0
330
1F
100
AcDbEntity
  8
0
  6
Continuous
 62
     7
100
AcDbLine
 10
-0.456781712
 20
0.2522935285
 30
0.0
 11
-0.4274397831
 21
0.3005896344
 31
0.0
  0
LINE
  5
B1
330
1F
100
AcDbEntity
  8
0
  6
Continuous
 62
     7
100
AcDbLine
 10
-0.4274397831
 20
0.3005896344
 30
0.0
 11
-0.3827591865
 21
0.2822209435
 31
0.0
  0
LINE
  5
B2
330
1F
100
AcDbEntity
  8
0
  6
Continuous
 62
     7
100
AcDbLine
 10
-0.3827591865
 20
0.2822209435
 30
0.0
 11
-0.3604353806
 21
0.2191716561
 31
0.0
  0
LINE
  5
B3
330
1F
100
AcDbEntity
  8
0
  6
Continuous
 62
     7
100
AcDbLine
 10
-0.3604353806
 20
0.2191716561
 30
0.0
 11
-0.4022348158
 21
0.1696765491
 31
0.0
  0
LINE
  5
B4
330
1F
100
AcDbEntity
  8
0
  6
Continuous
 62
     7
100
AcDbLine
 10
-0.531978857
 20
0.2146920137
 30
0.0
 11
-0.525515855
 21
0.25229353
 31
0.0
  0
LINE
  5
B5
330
1F
100
AcDbEntity
  8
0
  6
Continuous
 62
     7
100
AcDbLine
 10
-0.525515855
 20
0.25229353
 30
0.0
 11
-0.4946985202
 21
0.2690550188
 31
0.0
  0
LINE
  5
B6
330
1F
100
AcDbEntity
  8
0
  6
Continuous
 62
     7
100
AcDbLine
 10
-0.4946985202
 20
0.2690550188
 30
0.0
 11
-0.456781712
 21
0.2522935285
 31
0.0
  0
LINE
  5
B7
330
1F
100
AcDbEntity
  8
0
  6
Continuous
 62
     7
100
AcDbLine
 10
-0.5929706504
 20
0.2690550191
 30
0.0
 11
-0.5929706504
 21
0.287351913
 31
0.0
  0
LINE
  5
B8
330
1F
100
AcDbEntity
  8
0
  6
Continuous
 62
     7
100
AcDbLine
 10
-0.5929706504
 20
0.287351913
 30
0.0
 11
-0.569116891
 21
0.3046518088
 31
0.0
  0
LINE
  5
B9
330
1F
100
AcDbEntity
  8
0
  6
Continuous
 62
     7
100
AcDbLine
 10
-0.569116891
 20
0.3046518088
 30
0.0
 11
-0.5407703625
 21
0.3126925692
 31
0.0
  0
LINE
  5
BA
330
1F
100
AcDbEntity
  8
0
  6
Continuous
 62
     7
100
AcDbLine
 10
-0.5407703625
 20
0.3126925692
 30
0.0
 11
-0.5050421491
 21
0.263429139
 31
0.0
  0
LINE
  5
BB
330
1F
100
AcDbEntity
  8
0
  6
Continuous
 62
     7
100
AcDbLine
 10
-0.6674966684
 20
0.2479150105
 30
0.0
 11
-0.6744763337
 21
0.2725208028
 31
0.0
  0
LINE
  5
BC
330
1F
100
AcDbEntity
  8
0
  6
Continuous
 62
     7
100
AcDbLine
 10
-0.6744763337
 20
0.2725208028
 30
0.0
 11
-0.6744763337
 21
0.3221090678
 31
0.0
  0
LINE
  5
BD
330
1F
100
AcDbEntity
  8
0
  6
Continuous
 62
     7
100
AcDbLine
 10
-0.6744763337
 20
0.3221090678
 30
0.0
 11
-0.6526921541
 21
0.3366657458
 31
0.0
  0
LINE
  5
BE
330
1F
100
AcDbEntity
  8
0
  6
Continuous
 62
     7
100
AcDbLine
 10
-0.6526921541
 20
0.3366657458
 30
0.0
 11
-0.6223480882
 21
0.3240666297
 31
0.0
  0
LINE
  5
BF
330
1F
100
AcDbEntity
  8
0
  6
Continuous
 62
     7
100
AcDbLine
 10
-0.6223480882
 20
0.3240666297
 30
0.0
 11
-0.6041979578
 21
0.31653054
 31
0.0
  0
LINE
  5
C0
330
1F
100
AcDbEntity
  8
0
  6
Continuous
 62
     7
100
AcDbLine
 10
-0.6041979578
 20
0.31653054
 30
0.0
 11
-0.5929706504
 21
0.287351913
 31
0.0
  0
LINE
  5
C1
330
1F
100
AcDbEntity
  8
0
  6
Continuous
 62
     7
100
AcDbLine
 10
-0.7486601885
 20
0.2307428657
 30
0.0
 11
-0.7279329013
 21
0.287351913
 31
0.0
  0
LINE
  5
C2
330
1F
100
AcDbEntity
  8
0
  6
Continuous
 62
     7
100
AcDbLine
 10
-0.7279329013
 20
0.287351913
 30
0.0
 11
-0.6744763337
 21
0.3221090678
 31
0.0
  0
LINE
  5
C3
330
1F
100
AcDbEntity
  8
0
  6
Continuous
 62
     7
100
AcDbLine
 10
-0.7279329013
 20
0.287351913
 30
0.0
 11
-0.7486601886
 21
0.2949411669
 31
0.0
  0
LINE
  5
C4
330
1F
100
AcDbEntity
  8
0
  6
Continuous
 62
     7
100
AcDbLine
 10
-0.7486601886
 20
0.2949411669
 30
0.0
 11
-0.7973065735
 21
0.3005896363
 31
0.0
  0
LINE
  5
C5
330
1F
100
AcDbEntity
  8
0
  6
Continuous
 62
     7
100
AcDbLine
 10
-0.8271297989
 20
0.1851659757
 30
0.0
 11
-0.8864601879
 21
0.2130580024
 31
0.0
  0
LINE
  5
C6
330
1F
100
AcDbEntity
  8
0
  6
Continuous
 62
     7
100
AcDbLine
 10
-0.6744763337
 20
0.3221090678
 30
0.0
 11
-0.6891730711
 21
0.3739202723
 31
0.0
  0
LINE
  5
C7
330
1F
100
AcDbEntity
  8
0
  6
Continuous
 62
     7
100
AcDbLine
 10
-0.6526921541
 20
0.3366657458
 30
0.0
 11
-0.6223480882
 21
0.3366657458
 31
0.0
  0
LINE
  5
C8
330
1F
100
AcDbEntity
  8
0
  6
Continuous
 62
     7
100
AcDbLine
 10
-0.6223480882
 20
0.3366657458
 30
0.0
 11
-0.6476260348
 21
0.3980098845
 31
0.0
  0
LINE
  5
C9
330
1F
100
AcDbEntity
  8
0
  6
Continuous
 62
     7
100
AcDbLine
 10
-0.6223480882
 20
0.3366657458
 30
0.0
 11
-0.569116891
 21
0.3546864217
 31
0.0
  0
LINE
  5
CA
330
1F
100
AcDbEntity
  8
0
  6
Continuous
 62
     7
100
AcDbLine
 10
-0.569116891
 20
0.3546864217
 30
0.0
 11
-0.5407703625
 21
0.3126925692
 31
0.0
  0
LINE
  5
CB
330
1F
100
AcDbEntity
  8
0
  6
Continuous
 62
     7
100
AcDbLine
 10
-0.569116891
 20
0.3546864217
 30
0.0
 11
-0.6041979578
 21
0.4187276985
 31
0.0
  0
LINE
  5
CC
330
1F
100
AcDbEntity
  8
0
  6
Continuous
 62
     7
100
AcDbLine
 10
-0.569116891
 20
0.3546864217
 30
0.0
 11
-0.5407703625
 21
0.3622567209
 31
0.0
  0
LINE
  5
CD
330
1F
100
AcDbEntity
  8
0
  6
Continuous
 62
     7
100
AcDbLine
 10
-0.5407703625
 20
0.3622567209
 30
0.0
 11
-0.4946985202
 21
0.3546864217
 31
0.0
  0
LINE
  5
CE
330
1F
100
AcDbEntity
  8
0
  6
Continuous
 62
     7
100
AcDbLine
 10
-0.4946985202
 20
0.3546864217
 30
0.0
 11
-0.4712735914
 21
0.3366657458
 31
0.0
  0
LINE
  5
CF
330
1F
100
AcDbEntity
  8
0
  6
Continuous
 62
     7
100
AcDbLine
 10
-0.4712735914
 20
0.3366657458
 30
0.0
 11
-0.456781712
 21
0.3405359857
 31
0.0
  0
LINE
  5
D0
330
1F
100
AcDbEntity
  8
0
  6
Continuous
 62
     7
100
AcDbLine
 10
-0.456781712
 20
0.3405359857
 30
0.0
 11
-0.4197162641
 21
0.373920272
 31
0.0
  0
LINE
  5
D1
330
1F
100
AcDbEntity
  8
0
  6
Continuous
 62
     7
100
AcDbLine
 10
-0.4197162641
 20
0.373920272
 30
0.0
 11
-0.4022348149
 21
0.360471884
 31
0.0
  0
LINE
  5
D2
330
1F
100
AcDbEntity
  8
0
  6
Continuous
 62
     7
100
AcDbLine
 10
-0.4022348149
 20
0.360471884
 30
0.0
 11
-0.3777376147
 21
0.4222847632
 31
0.0
  0
LINE
  5
D3
330
1F
100
AcDbEntity
  8
0
  6
Continuous
 62
     7
100
AcDbLine
 10
-0.4946985202
 20
0.2690550188
 30
0.0
 11
-0.4763044844
 21
0.3405359857
 31
0.0
  0
LINE
  5
D4
330
1F
100
AcDbEntity
  8
0
  6
Continuous
 62
     7
100
AcDbLine
 10
-0.456781712
 20
0.3405359857
 30
0.0
 11
-0.4486235482
 21
0.31653054
 31
0.0
  0
LINE
  5
D5
330
1F
100
AcDbEntity
  8
0
  6
Continuous
 62
     7
100
AcDbLine
 10
-0.4486235482
 20
0.31653054
 30
0.0
 11
-0.4274397831
 21
0.3005896344
 31
0.0
  0
LINE
  5
D6
330
1F
100
AcDbEntity
  8
0
  6
Continuous
 62
     7
100
AcDbLine
 10
-0.3827591865
 20
0.2822209435
 30
0.0
 11
-0.3715851241
 21
0.3006131803
 31
0.0
  0
LINE
  5
D7
330
1F
100
AcDbEntity
  8
0
  6
Continuous
 62
     7
100
AcDbLine
 10
-0.3715851241
 20
0.3006131803
 30
0.0
 11
-0.3827591865
 21
0.3496432496
 31
0.0
  0
LINE
  5
D8
330
1F
100
AcDbEntity
  8
0
  6
Continuous
 62
     7
100
AcDbLine
 10
-0.3827591865
 20
0.3496432496
 30
0.0
 11
-0.4022348149
 21
0.360471884
 31
0.0
  0
LINE
  5
D9
330
1F
100
AcDbEntity
  8
0
  6
Continuous
 62
     7
100
AcDbLine
 10
-0.3715851241
 20
0.3006131803
 30
0.0
 11
-0.3546371112
 21
0.2949411669
 31
0.0
  0
LINE
  5
DA
330
1F
100
AcDbEntity
  8
0
  6
Continuous
 62
     7
100
AcDbLine
 10
-0.3546371112
 20
0.2949411669
 30
0.0
 11
-0.3311480449
 21
0.2977771736
 31
0.0
  0
LINE
  5
DB
330
1F
100
AcDbEntity
  8
0
  6
Continuous
 62
     7
100
AcDbLine
 10
-0.3311480449
 20
0.2977771736
 30
0.0
 11
-0.2910827183
 21
0.2843684591
 31
0.0
  0
LINE
  5
DC
330
1F
100
AcDbEntity
  8
0
  6
Continuous
 62
     7
100
AcDbLine
 10
-0.2910827183
 20
0.2843684591
 30
0.0
 11
-0.2784306485
 21
0.2910728163
 31
0.0
  0
LINE
  5
DD
330
1F
100
AcDbEntity
  8
0
  6
Continuous
 62
     7
100
AcDbLine
 10
-0.2784306485
 20
0.2910728163
 30
0.0
 11
-0.2910827183
 21
0.3046518087
 31
0.0
  0
LINE
  5
DE
330
1F
100
AcDbEntity
  8
0
  6
Continuous
 62
     7
100
AcDbLine
 10
-0.2910827183
 20
0.3046518087
 30
0.0
 11
-0.26722455
 21
0.3556568219
 31
0.0
  0
LINE
  5
DF
330
1F
100
AcDbEntity
  8
0
  6
Continuous
 62
     7
100
AcDbLine
 10
-0.3311480449
 20
0.1133352984
 30
0.0
 11
-0.305921226
 21
0.1431481259
 31
0.0
  0
LINE
  5
E0
330
1F
100
AcDbEntity
  8
0
  6
Continuous
 62
     7
100
AcDbLine
 10
-0.305921226
 20
0.1431481259
 30
0.0
 11
-0.2966947354
 21
0.1851659757
 31
0.0
  0
LINE
  5
E1
330
1F
100
AcDbEntity
  8
0
  6
Continuous
 62
     7
100
AcDbLine
 10
-0.2966947354
 20
0.1851659757
 30
0.0
 11
-0.3249893066
 21
0.2146920137
 31
0.0
  0
LINE
  5
E2
330
1F
100
AcDbEntity
  8
0
  6
Continuous
 62
     7
100
AcDbLine
 10
-0.3249893066
 20
0.2146920137
 30
0.0
 11
-0.3604353806
 21
0.2191716561
 31
0.0
  0
LINE
  5
E3
330
1F
100
AcDbEntity
  8
0
  6
Continuous
 62
     7
100
AcDbLine
 10
-0.2784306485
 20
0.2910728163
 30
0.0
 11
-0.2719963017
 21
0.263429139
 31
0.0
  0
LINE
  5
E4
330
1F
100
AcDbEntity
  8
0
  6
Continuous
 62
     7
100
AcDbLine
 10
-0.2719963017
 20
0.263429139
 30
0.0
 11
-0.2719963017
 21
0.2421336365
 31
0.0
  0
LINE
  5
E5
330
1F
100
AcDbEntity
  8
0
  6
Continuous
 62
     7
100
AcDbLine
 10
-0.2719963017
 20
0.2421336365
 30
0.0
 11
-0.305921226
 21
0.1947940316
 31
0.0
  0
LINE
  5
E6
330
1F
100
AcDbEntity
  8
0
  6
Continuous
 62
     7
100
AcDbLine
 10
-0.305921226
 20
0.1947940316
 30
0.0
 11
-0.2752134751
 21
0.2019415726
 31
0.0
  0
LINE
  5
E7
330
1F
100
AcDbEntity
  8
0
  6
Continuous
 62
     7
100
AcDbLine
 10
-0.2752134751
 20
0.2019415726
 30
0.0
 11
-0.2471199823
 21
0.1884809582
 31
0.0
  0
LINE
  5
E8
330
1F
100
AcDbEntity
  8
0
  6
Continuous
 62
     7
100
AcDbLine
 10
-0.2471199823
 20
0.1884809582
 30
0.0
 11
-0.2219460335
 21
0.1622113618
 31
0.0
  0
LINE
  5
E9
330
1F
100
AcDbEntity
  8
0
  6
Continuous
 62
     7
100
AcDbLine
 10
-0.2219460335
 20
0.1622113618
 30
0.0
 11
-0.2345330079
 21
0.135941233
 31
0.0
  0
LINE
  5
EA
330
1F
100
AcDbEntity
  8
0
  6
Continuous
 62
     7
100
AcDbLine
 10
-0.2345330079
 20
0.135941233
 30
0.0
 11
-0.2611667287
 21
0.1246264763
 31
0.0
  0
LINE
  5
EB
330
1F
100
AcDbEntity
  8
0
  6
Continuous
 62
     7
100
AcDbLine
 10
-0.2611667287
 20
0.1246264763
 30
0.0
 11
-0.305921226
 21
0.1431481259
 31
0.0
  0
LINE
  5
EC
330
1F
100
AcDbEntity
  8
0
  6
Continuous
 62
     7
100
AcDbLine
 10
-0.2345330079
 20
0.135941233
 30
0.0
 11
-0.2118363849
 21
0.0657711744
 31
0.0
  0
LINE
  5
ED
330
1F
100
AcDbEntity
  8
0
  6
Continuous
 62
     7
100
AcDbLine
 10
-0.2219460335
 20
0.1622113618
 30
0.0
 11
-0.1683451594
 21
0.1573498036
 31
0.0
  0
LINE
  5
EE
330
1F
100
AcDbEntity
  8
0
  6
Continuous
 62
     7
100
AcDbLine
 10
-0.1683451594
 20
0.1573498036
 30
0.0
 11
-0.1315706262
 21
0.1008562036
 31
0.0
  0
LINE
  5
EF
330
1F
100
AcDbEntity
  8
0
  6
Continuous
 62
     7
100
AcDbLine
 10
-0.1683451594
 20
0.1573498036
 30
0.0
 11
-0.1589320162
 21
0.1947940316
 31
0.0
  0
LINE
  5
F0
330
1F
100
AcDbEntity
  8
0
  6
Continuous
 62
     7
100
AcDbLine
 10
-0.1589320162
 20
0.1947940316
 30
0.0
 11
-0.1315706262
 21
0.2369778867
 31
0.0
  0
LINE
  5
F1
330
1F
100
AcDbEntity
  8
0
  6
Continuous
 62
     7
100
AcDbLine
 10
-0.2471199823
 20
0.1884809582
 30
0.0
 11
-0.2189315207
 21
0.2019415726
 31
0.0
  0
LINE
  5
F2
330
1F
100
AcDbEntity
  8
0
  6
Continuous
 62
     7
100
AcDbLine
 10
-0.2189315207
 20
0.2019415726
 30
0.0
 11
-0.2040392816
 21
0.2479150105
 31
0.0
  0
LINE
  5
F3
330
1F
100
AcDbEntity
  8
0
  6
Continuous
 62
     7
100
AcDbLine
 10
-0.2040392816
 20
0.2479150105
 30
0.0
 11
-0.2719963017
 21
0.2527813877
 31
0.0
  0
LINE
  5
F4
330
1F
100
AcDbEntity
  8
0
  6
Continuous
 62
     7
100
AcDbLine
 10
-0.2040392816
 20
0.2479150105
 30
0.0
 11
-0.1484653285
 21
0.256978798
 31
0.0
  0
LINE
  5
F5
330
1F
100
AcDbEntity
  8
0
  6
Continuous
 62
     7
100
AcDbLine
 10
-0.2040392816
 20
0.2479150105
 30
0.0
 11
-0.155340428
 21
0.2003312881
 31
0.0
  0
LINE
  5
F6
330
1F
100
AcDbEntity
  8
0
  6
Continuous
 62
     7
100
AcDbLine
 10
-0.2040392816
 20
0.2479150105
 30
0.0
 11
-0.2067879888
 21
0.2772079067
 31
0.0
  0
LINE
  5
F7
330
1F
100
AcDbEntity
  8
0
  6
Continuous
 62
     7
100
AcDbLine
 10
-0.2067879888
 20
0.2772079067
 30
0.0
 11
-0.1983692996
 21
0.3031970195
 31
0.0
  0
LWPOLYLINE
  5
F8
330
1F
100
AcDbEntity
  8
0
  6
Continuous
 62
     7
100
AcDbPolyline
 90
       14
 70
   128
 43
0.0
 10
-0.9203414748
 20
-0.5531161201
 10
-0.7390294321
 20
-0.517163023
 10
-0.5990577477
 20
-0.3847940189
 10
-0.5402600779
 20
-0.2109266756
 10
-0.565730006
 20
-0.0181455265
 10
-0.6350466148
 20
0.0803505677
 10
-0.7605252429
 20
0.1137176533
 10
-0.9417050228
 20
0.0684681168
 10
-1.0651679669
 20
-0.0751415162
 10
-1.1343218915
 20
-0.2501653791
 10
-1.1559807544
 20
-0.3444028832
 10
-1.1369532757
 20
-0.434218977
 10
-1.0429894768
 20
-0.5190986501
 10
-0.9203415262
 20
-0.5531161201
  0
LWPOLYLINE
  5
F9
330
1F
100
AcDbEntity
  8
0
  6
Continuous
 62
     7
100
AcDbPolyline
 90
       11
 70
   128
 43
0.0
 10
-0.9805010998
 20
-0.2032140169
 10
-0.9638178089
 20
-0.2026621379
 10
-0.9496095605
 20
-0.1933204515
 10
-0.9400594136
 20
-0.1776624576
 10
-0.9399731916
 20
-0.1619354323
 10
-0.958986158
 20
-0.1525558374
 10
-0.989757312
 20
-0.1634456007
 10
-1.0015010839
 20
-0.1758218006
 10
-1.0028927434
 20
-0.1828189947
 10
-1.0000926663
 20
-0.1898609747
 10
-0.9805015023
 20
-0.2032140169
  0
LWPOLYLINE
  5
FA
330
1F
100
AcDbEntity
  8
0
  6
Continuous
 62
     7
100
AcDbPolyline
 90
       12
 70
   128
 43
0.0
 10
-0.7480224521
 20
-0.1842963219
 10
-0.7439049405
 20
-0.1870972487
 10
-0.7374043492
 20
-0.1877261779
 10
-0.7216708071
 20
-0.1829901061
 10
-0.70949528
 20
-0.171747336
 10
-0.7071203391
 20
-0.1654790041
 10
-0.7083841119
 20
-0.160128515
 10
-0.7208679284
 20
-0.1552805094
 10
-0.7363456769
 20
-0.1608451734
 10
-0.7469125501
 20
-0.1731667691
 10
-0.7489303867
 20
-0.1793816764
 10
-0.7480224801
 20
-0.1842963219
  0
LWPOLYLINE
  5
FB
330
1F
100
AcDbEntity
  8
0
  6
Continuous
 62
     7
100
AcDbPolyline
 90
        3
 70
   128
 43
0.0
 10
-0.59297059
 20
-0.5531161201
 10
-0.6011176882
 20
-0.6446041985
 10
-0.5691168911
 20
-0.7148679787
  0
LWPOLYLINE
  5
FC
330
1F
100
AcDbEntity
  8
0
  6
Continuous
 62
     7
100
AcDbPolyline
 90
        3
 70
   128
 43
0.0
 10
-0.65269198
 20
-0.559721201
 10
-0.7136028671
 20
-0.6348908341
 10
-0.7480224801
 20
-0.702455624
  0
LWPOLYLINE
  5
FD
330
1F
100
AcDbEntity
  8
0
  6
Continuous
 62
     7
100
AcDbPolyline
 90
        4
 70
   128
 43
0.0
 10
-0.8570332461
 20
-0.5553477156
 10
-0.5586188936
 20
-0.5503942987
 10
-0.2665771538
 20
-0.4823119356
 10
0.1642518337
 20
-0.2949046192
  0
LWPOLYLINE
  5
FE
330
1F
100
AcDbEntity
  8
0
  6
Continuous
 62
     7
100
AcDbPolyline
 90
        3
 70
   128
 43
0.0
 10
0.1642517159
 20
-0.2949046192
 10
0.2790139966
 20
-0.2093505501
 10
0.3691842675
 20
-0.1421294958
  0
LINE
  5
FF
330
1F
100
AcDbEntity
  8
0
  6
Continuous
 62
     7
100
AcDbLine
 10
0.3691841885
 20
-0.1421294958
 30
0.0
 11
0.1200361618
 21
-0.1698126186
 31
0.0
  0
LWPOLYLINE
  5
100
330
1F
100
AcDbEntity
  8
0
  6
Continuous
 62
     7
100
AcDbPolyline
 90
        7
 70
   128
 43
0.0
 10
0.1482995535
 20
-0.3033169231
 10
0.1642799569
 20
-0.2713778962
 10
0.1569586758
 20
-0.2376205089
 10
0.1142243585
 20
-0.1765341577
 10
0.0168808692
 20
-0.0730032559
 10
-0.0940413259
 20
0.0181907467
 10
-0.2308414024
 20
0.0689121895
  0
LWPOLYLINE
  5
101
330
1F
100
AcDbEntity
  8
0
  6
Continuous
 62
     7
100
AcDbPolyline
 90
        7
 70
   128
 43
0.0
 10
-1.0148717428
 20
0.0
 10
-0.8944360987
 20
0.2024374768
 10
-0.7178835581
 20
0.3558666746
 10
-0.5007027883
 20
0.4421792485
 10
-0.2819390945
 20
0.3664195245
 10
-0.1577746731
 20
0.2667344677
 10
-0.0868178082
 20
0.1306279469
  0
LWPOLYLINE
  5
102
330
1F
100
AcDbEntity
  8
0
  6
Continuous
 62
     7
100
AcDbPolyline
 90
        3
 70
   128
 43
0.0
 10
-0.2118362862
 20
0.0657711744
 10
-0.1389755919
 20
0.0967125464
 10
-0.0868178082
 20
0.1306279469
  0
LWPOLYLINE
  5
103
330
1F
100
AcDbEntity
  8
0
  6
Continuous
 62
     7
100
AcDbPolyline
 90
        3
 70
   128
 43
0.0
 10
-0.4197161381
 20
0.0463566737
 10
-0.3857479071
 20
-0.0920109616
 10
-0.4197162651
 20
-0.2032140169
  0
LWPOLYLINE
  5
104
330
1F
100
AcDbEntity
  8
0
  6
Continuous
 62
     7
100
AcDbPolyline
 90
        3
 70
   128
 43
0.0
 10
-0.3715850941
 20
-0.2032140169
 10
-0.3371288797
 20
-0.0497370644
 10
-0.3492788309
 20
0.0772375809
  0
LWPOLYLINE
  5
105
330
1F
100
AcDbEntity
  8
0
  6
Continuous
 62
     7
100
AcDbPolyline
 90
        6
 70
   128
 43
0.0
 10
-0.4197161381
 20
-0.2032140169
 10
-0.425669343
 20
-0.2154947243
 10
-0.4222811311
 20
-0.224362923
 10
-0.4072833511
 20
-0.2310578471
 10
-0.3908045702
 20
-0.2295378243
 10
-0.3715851241
 20
-0.2032140169
  0
LWPOLYLINE
  5
106
330
1F
100
AcDbEntity
  8
0
  6
Continuous
 62
     7
100
AcDbPolyline
 90
       66
 70
   128
 43
0.0
 10
-0.158931884
 20
-0.4103079086
 10
-0.1811109586
 20
-0.3914293915
 10
-0.1824078202
 20
-0.3852834412
 10
-0.1790526994
 20
-0.3806943845
 10
-0.1551486232
 20
-0.3714787349
 10
-0.1441200888
 20
-0.3664674269
 10
-0.1409146906
 20
-0.3631536522
 10
-0.1400039269
 20
-0.3590434387
 10
-0.1522061989
 20
-0.3367442728
 10
-0.1588819836
 20
-0.324837489
 10
-0.1591031607
 20
-0.3145374283
 10
-0.1330142851
 20
-0.2973255836
 10
-0.1322146683
 20
-0.2910567161
 10
-0.1482443649
 20
-0.2754000042
 10
-0.1587914381
 20
-0.2589219487
 10
-0.1432813189
 20
-0.244354042
 10
-0.1316447914
 20
-0.2298032136
 10
-0.1404015398
 20
-0.2120755206
 10
-0.1295202244
 20
-0.1913258923
 10
-0.1261515029
 20
-0.1856843237
 10
-0.1257651567
 20
-0.181530516
 10
-0.1387676119
 20
-0.1781774688
 10
-0.1561319866
 20
-0.1769745811
 10
-0.1592117166
 20
-0.175560124
 10
-0.1599195981
 20
-0.1732204546
 10
-0.1391433633
 20
-0.1504606279
 10
-0.1269822756
 20
-0.1373908781
 10
-0.1240189757
 20
-0.1316789734
 10
-0.1244902141
 20
-0.1269901649
 10
-0.1419054309
 20
-0.1195863177
 10
-0.1515350175
 20
-0.1143626095
 10
-0.1505671293
 20
-0.1096491915
 10
-0.1455207909
 20
-0.1038792361
 10
-0.1334222333
 20
-0.0925751991
 10
-0.1315821628
 20
-0.0898047742
 10
-0.1315008432
 20
-0.0887489269
 10
-0.1320902487
 20
-0.0879495203
 10
-0.161624506
 20
-0.0872437694
 10
-0.1639954653
 20
-0.0862882205
 10
-0.1642371276
 20
-0.0854722056
 10
-0.1638800118
 20
-0.0844389727
 10
-0.1548133522
 20
-0.076220046
 10
-0.141590366
 20
-0.0660125142
 10
-0.1350536497
 20
-0.0573448287
 10
-0.1361973654
 20
-0.0553956221
 10
-0.1391197734
 20
-0.0539560864
 10
-0.1666118777
 20
-0.0472390475
 10
-0.1680312774
 20
-0.0455993256
 10
-0.1683107336
 20
-0.0435600436
 10
-0.1589140436
 20
-0.02793306
 10
-0.1594280774
 20
-0.0262299946
 10
-0.1612164571
 20
-0.02502714
 10
-0.1674443768
 20
-0.0236147595
 10
-0.1821958211
 20
-0.021170092
 10
-0.1859713254
 20
-0.0180845363
 10
-0.1835030699
 20
-0.0096721248
 10
-0.1798997652
 20
-0.0010436073
 10
-0.180500585
 20
0.0008614162
 10
-0.1823557271
 20
0.0020786939
 10
-0.2026169946
 20
0.0005229331
 10
-0.2045918124
 20
-0.0002588153
 10
-0.2051353157
 20
-0.0006098293
 10
-0.2053306713
 20
-0.000917232
 10
-0.2052481557
 20
-0.0010916284
 10
-0.2049819019
 20
-0.0012371765
 10
-0.1876611333
 20
0.0
  0
LWPOLYLINE
  5
107
330
1F
100
AcDbEntity
  8
0
  6
Continuous
 62
     7
100
AcDbPolyline
 90
        3
 70
   128
 43
0.0
 10
-0.23084128
 20
0.0463566737
 10
-0.178720204
 20
-0.2337604749
 10
-0.2308414024
 20
-0.4535902225
  0
LWPOLYLINE
  5
108
330
1F
100
AcDbEntity
  8
0
  6
Continuous
 62
     7
100
AcDbPolyline
 90
        3
 70
   128
 43
0.0
 10
-0.2611666096
 20
-0.4498748128
 10
-0.1585783135
 20
-0.4388012438
 10
-0.0808345467
 20
-0.4124991205
  0
ARC
  5
109
330
1F
100
AcDbEntity
  8
0
  6
Continuous
 62
     7
100
AcDbCircle
 10
-0.4924675872
 20
-0.2416215933
 30
0.0
 40
0.4232939288513653
100
AcDbArc
 50
334.3179126294
 51
38.0053783932
  0
LWPOLYLINE
  5
10A
330
1F
100
AcDbEntity
  8
0
  6
Continuous
 62
     7
100
AcDbPolyline
 90
       15
 70
   128
 43
0.0
 10
-0.776017862
 20
-0.5481505143
 10
-0.779227904
 20
-0.5510748501
 10
-0.7795204734
 20
-0.5516997088
 10
-0.7794913382
 20
-0.5519222277
 10
-0.7793487567
 20
-0.5520869142
 10
-0.7786885994
 20
-0.5522517031
 10
-0.77784064
 20
-0.5522155639
 10
-0.7756458427
 20
-0.5518126823
 10
-0.7697445803
 20
-0.5501277013
 10
-0.6909470844
 20
-0.523087044
 10
-0.6551407635
 20
-0.5147722845
 10
-0.6362911539
 20
-0.5156593556
 10
-0.6313030996
 20
-0.5204064506
 10
-0.6342963592
 20
-0.5348295761
 10
-0.6526921541
 20
-0.559721201
  0
LWPOLYLINE
  5
10B
330
1F
100
AcDbEntity
  8
0
  6
Continuous
 62
     7
100
AcDbPolyline
 90
        3
 70
   128
 43
0.0
 10
-0.65269198
 20
-0.559721201
 10
-0.583362994
 20
-0.533431137
 10
-0.5255158545
 20
-0.5249587206
  0
LWPOLYLINE
  5
10C
330
1F
100
AcDbEntity
  8
0
  6
Continuous
 62
     7
100
AcDbPolyline
 90
        3
 70
   128
 43
0.0
 10
-0.5319787879
 20
-0.5359570804
 10
-0.4539106179
 20
-0.5146081159
 10
-0.3923958585
 20
-0.4984962747
  0
LWPOLYLINE
  5
10D
330
1F
100
AcDbEntity
  8
0
  6
Continuous
 62
     7
100
AcDbPolyline
 90
        3
 70
   128
 43
0.0
 10
-0.3859928743
 20
-0.4835976391
 10
-0.3345821862
 20
-0.4854363587
 10
-0.2966947354
 20
-0.4722150763
  0
LWPOLYLINE
  5
10E
330
1F
100
AcDbEntity
  8
0
  6
Continuous
 62
     7
100
AcDbPolyline
 90
        3
 70
   128
 43
0.0
 10
-1.0957926746
 20
-0.1608447721
 10
-1.0467299967
 20
-0.0820235675
 10
-0.992889306
 20
-0.033807301
  0
LWPOLYLINE
  5
10F
330
1F
100
AcDbEntity
  8
0
  6
Continuous
 62
     7
100
AcDbPolyline
 90
        3
 70
   128
 43
0.0
 10
-1.0435940243
 20
-0.068141955
 10
-1.0072307366
 20
-0.0198378737
 10
-0.9928893063
 20
0.0249106418
  0
LWPOLYLINE
  5
110
330
1F
100
AcDbEntity
  8
0
  6
Continuous
 62
     7
100
AcDbPolyline
 90
        3
 70
   128
 43
0.0
 10
-0.6902681326
 20
0.373246153
 10
-0.6946562325
 20
0.392736344
 10
-0.6891730711
 20
0.4065010681
  0
LWPOLYLINE
  5
111
330
1F
100
AcDbEntity
  8
0
  6
Continuous
 62
     7
100
AcDbPolyline
 90
        5
 70
   128
 43
0.0
 10
-0.4995253494
 20
-0.5055750606
 10
-0.4553795093
 20
-0.3649752406
 10
-0.4532697366
 20
-0.2186234507
 10
-0.4546338341
 20
-0.1020152663
 10
-0.4712735914
 20
0.0112306374
  0
LWPOLYLINE
  5
112
330
1F
100
AcDbEntity
  8
0
  6
Continuous
 62
     7
100
AcDbPolyline
 90
        3
 70
   128
 43
0.0
 10
-0.3484046952
 20
-0.4863677969
 10
-0.3198079721
 20
-0.3124033652
 10
-0.3604353806
 20
-0.1788178338
  0
LWPOLYLINE
  5
113
330
1F
100
AcDbEntity
  8
0
  6
Continuous
 62
     7
100
AcDbPolyline
 90
       35
 70
   128
 43
0.0
 10
-0.4096258813
 20
-0.4722150763
 10
-0.3859667682
 20
-0.4548083971
 10
-0.3850993455
 20
-0.4519111172
 10
-0.3872231011
 20
-0.4503990243
 10
-0.4027018284
 20
-0.450349282
 10
-0.4100946305
 20
-0.450481625
 10
-0.4123991678
 20
-0.4500223761
 10
-0.4133297047
 20
-0.4490190461
 10
-0.4108839533
 20
-0.4449443037
 10
-0.4040795639
 20
-0.4391034629
 10
-0.3868639599
 20
-0.4258101084
 10
-0.3624066098
 20
-0.4017792266
 10
-0.3602432814
 20
-0.3996779365
 10
-0.3601916834
 20
-0.3995696083
 10
-0.3606941587
 20
-0.3997400465
 10
-0.3704418304
 20
-0.4050673452
 10
-0.3899993488
 20
-0.410464573
 10
-0.4064161696
 20
-0.4028151642
 10
-0.4100691388
 20
-0.3943651798
 10
-0.4069715358
 20
-0.3895730971
 10
-0.4004771585
 20
-0.3858300198
 10
-0.3911692786
 20
-0.3737039862
 10
-0.3943154475
 20
-0.348238905
 10
-0.3934693616
 20
-0.3468116813
 10
-0.3914424393
 20
-0.3470144183
 10
-0.3816184512
 20
-0.3528868714
 10
-0.3748399419
 20
-0.3557661119
 10
-0.3723821894
 20
-0.3552992161
 10
-0.3709718112
 20
-0.3529004684
 10
-0.3713477979
 20
-0.3421316022
 10
-0.371628648
 20
-0.3415453166
 10
-0.3716680177
 20
-0.341541908
 10
-0.3717044477
 20
-0.3415683928
 10
-0.3717848993
 20
-0.3417935733
 10
-0.3715851241
 20
-0.3475831829
  0
LWPOLYLINE
  5
114
330
1F
100
AcDbEntity
  8
0
  6
Continuous
 62
     7
100
AcDbPolyline
 90
       22
 70
   128
 43
0.0
 10
-0.3859928743
 20
-0.3614533454
 10
-0.3892321375
 20
-0.3563756765
 10
-0.3890971886
 20
-0.35116517
 10
-0.3641335705
 20
-0.3240504824
 10
-0.3635399646
 20
-0.3221803015
 10
-0.3642872631
 20
-0.32067294
 10
-0.3696221593
 20
-0.3185986619
 10
-0.387993109
 20
-0.3125579393
 10
-0.3893471072
 20
-0.3079301962
 10
-0.3874628276
 20
-0.3021069918
 10
-0.3770677664
 20
-0.2883927675
 10
-0.351389955
 20
-0.2633230367
 10
-0.3484560501
 20
-0.2597615827
 10
-0.3480228552
 20
-0.2586364628
 10
-0.3482839371
 20
-0.2579414918
 10
-0.3496255839
 20
-0.2576221452
 10
-0.4040519227
 20
-0.2755573666
 10
-0.4252097798
 20
-0.2793514743
 10
-0.4319892802
 20
-0.2778216656
 10
-0.4349710528
 20
-0.2731025723
 10
-0.4313996491
 20
-0.260676567
 10
-0.4096259016
 20
-0.2306324728
  0
LWPOLYLINE
  5
115
330
1F
100
AcDbEntity
  8
0
  6
Continuous
 62
     7
100
AcDbPolyline
 90
       18
 70
   128
 43
0.0
 10
-0.4486235108
 20
-0.1133934415
 10
-0.413744023
 20
-0.1075335321
 10
-0.4130300834
 20
-0.1003484339
 10
-0.4170657303
 20
-0.0916931387
 10
-0.42126522
 20
-0.0766102421
 10
-0.4101415832
 20
-0.0648327484
 10
-0.4094804189
 20
-0.0633452304
 10
-0.4098537841
 20
-0.0623202024
 10
-0.4109907789
 20
-0.061362785
 10
-0.4146049063
 20
-0.0595494262
 10
-0.420014759
 20
-0.0560939298
 10
-0.4199457214
 20
-0.0540027634
 10
-0.418211394
 20
-0.0516430843
 10
-0.4008293048
 20
-0.0257774092
 10
-0.4089268836
 20
-0.0006902348
 10
-0.4177906925
 20
0.0047970834
 10
-0.4281719741
 20
0.0042135254
 10
-0.4486235482
 20
-0.0224685383
  0
LWPOLYLINE
  5
116
330
1F
100
AcDbEntity
  8
0
  6
Continuous
 62
     7
100
AcDbPolyline
 90
        3
 70
   128
 43
0.0
 10
-0.0868177437
 20
0.0308909907
 10
-0.040839
 20
0.1937433023
 10
-0.0868178082
 20
0.31653054
  0
LWPOLYLINE
  5
117
330
1F
100
AcDbEntity
  8
0
  6
Continuous
 62
     7
100
AcDbPolyline
 90
        8
 70
   128
 43
0.0
 10
-0.0756422028
 20
0.3031970194
 10
-0.0595645156
 20
0.3341406848
 10
-0.0310140705
 20
0.3526601357
 10
0.0368532968
 20
0.3470205403
 10
0.0747435216
 20
0.3097924213
 10
0.0861269458
 20
0.2605380553
 10
0.0509941209
 20
0.162850972
 10
-0.0478999449
 20
-0.0145609231
  0
LWPOLYLINE
  5
118
330
1F
100
AcDbEntity
  8
0
  6
Continuous
 62
     7
100
AcDbPolyline
 90
        3
 70
   128
 43
0.0
 10
0.0144031694
 20
0.3556568219
 10
0.0303710356
 20
0.2137133983
 10
0.0120956498
 20
0.1008562036
  0
LWPOLYLINE
  5
119
330
1F
100
AcDbEntity
  8
0
  6
Continuous
 62
     7
100
AcDbPolyline
 90
        3
 70
   128
 43
0.0
 10
-0.0615025262
 20
0.0851663399
 10
-0.0279414898
 20
0.0846724
 10
-0.0031299716
 20
0.0772375809
  0
LWPOLYLINE
  5
11A
330
1F
100
AcDbEntity
  8
0
  6
Continuous
 62
     7
100
AcDbPolyline
 90
        4
 70
   128
 43
0.0
 10
-0.0478999367
 20
0.1306279469
 10
0.0042385258
 20
0.1299644207
 10
0.0183953396
 20
0.1401509985
 10
0.024610539
 20
0.1573498036
  0
LWPOLYLINE
  5
11B
330
1F
100
AcDbEntity
  8
0
  6
Continuous
 62
     7
100
AcDbPolyline
 90
        9
 70
   128
 43
0.0
 10
-0.2471199186
 20
0.5178836486
 10
-0.210680768
 20
0.5912449656
 10
-0.1505838004
 20
0.6419699796
 10
-0.128036806
 20
0.6500167347
 10
-0.1167658704
 20
0.6522113857
 10
-0.1125035165
 20
0.6518672891
 10
-0.1098448361
 20
0.6500719791
 10
-0.1096867265
 20
0.6447852602
 10
-0.1145208582
 20
0.6353933363
  0
LWPOLYLINE
  5
11C
330
1F
100
AcDbEntity
  8
0
  6
Continuous
 62
     7
100
AcDbPolyline
 90
       15
 70
   128
 43
0.0
 10
-0.04559242
 20
0.6292725557
 10
-0.0052787263
 20
0.6599057194
 10
0.0093651287
 20
0.7120061764
 10
-0.0057431329
 20
0.7313840398
 10
-0.0298198304
 20
0.739596443
 10
-0.0550143789
 20
0.743489308
 10
-0.0683696321
 20
0.7495438568
 10
-0.0757286302
 20
0.7583208946
 10
-0.0698454433
 20
0.7675273876
 10
-0.0547143351
 20
0.7763160463
 10
-0.0220216055
 20
0.7904724679
 10
-0.0170839335
 20
0.7939067166
 10
-0.0169809411
 20
0.7943512933
 10
-0.0171166094
 20
0.794756534
 10
-0.0187391747
 20
0.795636819
  0
LWPOLYLINE
  5
11D
330
1F
100
AcDbEntity
  8
0
  6
Continuous
 62
     7
100
AcDbPolyline
 90
       16
 70
   128
 43
0.0
 10
0.1200361133
 20
0.6434971922
 10
0.1192439436
 20
0.6382546865
 10
0.1165994309
 20
0.6357178933
 10
0.1089284212
 20
0.6367028751
 10
0.1016255336
 20
0.6461576914
 10
0.1001980711
 20
0.6585759578
 10
0.0992647676
 20
0.6817655926
 10
0.0955743961
 20
0.7195065569
 10
0.090725741
 20
0.7219575102
 10
0.084488048
 20
0.7217261449
 10
0.070412992
 20
0.7106541149
 10
0.0532526873
 20
0.7054669657
 10
0.0431094828
 20
0.7145151179
 10
0.040001732
 20
0.727665643
 10
0.0392920407
 20
0.7547735281
 10
0.0388726445
 20
0.8086305107
  0
LWPOLYLINE
  5
11E
330
1F
100
AcDbEntity
  8
0
  6
Continuous
 62
     7
100
AcDbPolyline
 90
       12
 70
   128
 43
0.0
 10
0.1747727277
 20
0.7212291738
 10
0.191025388
 20
0.7512241191
 10
0.1977927315
 20
0.7663517642
 10
0.1914863439
 20
0.782428612
 10
0.1799610871
 20
0.7880365873
 10
0.1671532914
 20
0.7849836026
 10
0.1518494286
 20
0.7511251115
 10
0.1553429323
 20
0.7132965496
 10
0.1692992577
 20
0.6916981641
 10
0.1926976303
 20
0.6839762341
 10
0.2141088167
 20
0.6987843711
 10
0.2253513212
 20
0.7212291738
  0
LWPOLYLINE
  5
11F
330
1F
100
AcDbEntity
  8
0
  6
Continuous
 62
     7
100
AcDbPolyline
 90
        8
 70
   128
 43
0.0
 10
0.2492563872
 20
0.8448695999
 10
0.2562455854
 20
0.819606928
 10
0.2536836794
 20
0.7929116601
 10
0.2561653696
 20
0.7364224459
 10
0.2579811176
 20
0.714458065
 10
0.2591546798
 20
0.7132073521
 10
0.2607031699
 20
0.7130357609
 10
0.2670250434
 20
0.7189676683
  0
LWPOLYLINE
  5
120
330
1F
100
AcDbEntity
  8
0
  6
Continuous
 62
     7
100
AcDbPolyline
 90
        3
 70
   128
 43
0.0
 10
0.2991914104
 20
0.8956405851
 10
0.3016629356
 20
0.8045603156
 10
0.3086718597
 20
0.7334401236
  0
LWPOLYLINE
  5
121
330
1F
100
AcDbEntity
  8
0
  6
Continuous
 62
     7
100
AcDbPolyline
 90
        4
 70
   128
 43
0.0
 10
-0.0187391727
 20
0.0
 10
0.0854912733
 20
0.0233714571
 10
0.177210851
 20
0.0720111591
 10
0.2609171066
 20
0.2165211537
  0
LWPOLYLINE
  5
122
330
1F
100
AcDbEntity
  8
0
  6
Continuous
 62
     7
100
AcDbPolyline
 90
        4
 70
   128
 43
0.0
 10
0.2609169859
 20
0.2165211537
 10
0.3123367894
 20
0.1142643157
 10
0.2774091294
 20
0.0067158377
 10
0.1200361618
 20
-0.1609933116
  0
LWPOLYLINE
  5
123
330
1F
100
AcDbEntity
  8
0
  6
Continuous
 62
     7
100
AcDbPolyline
 90
        4
 70
   128
 43
0.0
 10
-0.004015538
 20
-0.0527564824
 10
0.1075369013
 20
-0.0401022964
 10
0.206738813
 20
0.0133976493
 10
0.2882393636
 20
0.1696765491
  0
LWPOLYLINE
  5
124
330
1F
100
AcDbEntity
  8
0
  6
Continuous
 62
     7
100
AcDbPolyline
 90
        3
 70
   128
 43
0.0
 10
0.2935949684
 20
0.0889094792
 10
0.3299424092
 20
0.0562059354
 10
0.3620907526
 20
0.0350707624
  0
LWPOLYLINE
  5
125
330
1F
100
AcDbEntity
  8
0
  6
Continuous
 62
     7
100
AcDbPolyline
 90
        3
 70
   128
 43
0.0
 10
0.2453935252
 20
0.0350707624
 10
0.2717329314
 20
0.0109736182
 10
0.2935950664
 20
-0.0066005738
  0
LWPOLYLINE
  5
126
330
1F
100
AcDbEntity
  8
0
  6
Continuous
 62
     7
100
AcDbPolyline
 90
        3
 70
   128
 43
0.0
 10
0.1860123978
 20
0.0
 10
0.212274763
 20
-0.0279263605
 10
0.2295448555
 20
-0.0527564824
  0
LWPOLYLINE
  5
127
330
1F
100
AcDbEntity
  8
0
  6
Continuous
 62
     7
100
AcDbPolyline
 90
        3
 70
   128
 43
0.0
 10
0.1002622284
 20
-0.0272797867
 10
0.1321538655
 20
-0.0590361302
 10
0.1517314371
 20
-0.0885529641
  0
LWPOLYLINE
  5
128
330
1F
100
AcDbEntity
  8
0
  6
Continuous
 62
     7
100
AcDbPolyline
 90
        3
 70
   128
 43
0.0
 10
0.0120956436
 20
-0.068266651
 10
0.0295989781
 20
-0.239346298
 10
0.0051274284
 20
-0.3742568898
  0
LWPOLYLINE
  5
129
330
1F
100
AcDbEntity
  8
0
  6
Continuous
 62
     7
100
AcDbPolyline
 90
        3
 70
   128
 43
0.0
 10
0.0732255308
 20
-0.3415791532
 10
0.0957362893
 20
-0.2288975173
 10
0.0784546238
 20
-0.1374043117
  0
LWPOLYLINE
  5
12A
330
1F
100
AcDbEntity
  8
0
  6
Continuous
 62
     7
100
AcDbPolyline
 90
       14
 70
   128
 43
0.0
 10
0.024610529
 20
-0.126137199
 10
0.0401797088
 20
-0.1171689909
 10
0.052625789
 20
-0.1201337242
 10
0.0632159061
 20
-0.1459957368
 10
0.047730825
 20
-0.1771274223
 10
0.0422154986
 20
-0.1904830598
 10
0.0488235457
 20
-0.2041843729
 10
0.0532401449
 20
-0.2186146374
 10
0.0454993004
 20
-0.2333622718
 10
0.0439645456
 20
-0.247463792
 10
0.0548722479
 20
-0.2609356244
 10
0.0684962615
 20
-0.280055387
 10
0.0664938014
 20
-0.2909762204
 10
0.0536251888
 20
-0.3033169231
  0
LWPOLYLINE
  5
12B
330
1F
100
AcDbEntity
  8
0
  6
Continuous
 62
     7
100
AcDbPolyline
 90
       20
 70
   128
 43
0.0
 10
0.1747727277
 20
-0.1812053514
 10
0.2049839033
 20
-0.1869948512
 10
0.2062500679
 20
-0.1907168434
 10
0.2053003442
 20
-0.1949914101
 10
0.1988237475
 20
-0.204406392
 10
0.1820555668
 20
-0.2211566247
 10
0.1800882347
 20
-0.2237560877
 10
0.179789763
 20
-0.2246830489
 10
0.1799736853
 20
-0.2253499263
 10
0.1809141832
 20
-0.2258507036
 10
0.2039483307
 20
-0.2185469578
 10
0.2590627664
 20
-0.1723448236
 10
0.261141086
 20
-0.1695678961
 10
0.2611585022
 20
-0.1695597419
 10
0.2611702471
 20
-0.1695611215
 10
0.2611771963
 20
-0.169581302
 10
0.2611712964
 20
-0.1696235373
 10
0.2611207364
 20
-0.1697756213
 10
0.2605166035
 20
-0.1710860133
 10
0.2453936586
 20
-0.2032140169
  0
LWPOLYLINE
  5
12C
330
1F
100
AcDbEntity
  8
0
  6
Continuous
 62
     7
100
AcDbPolyline
 90
       26
 70
   128
 43
0.0
 10
0.212425586
 20
-0.2241138036
 10
0.2054624089
 20
-0.24778068
 10
0.2043675559
 20
-0.2492157222
 10
0.2042222638
 20
-0.2491903932
 10
0.2040950597
 20
-0.2490788206
 10
0.2038935135
 20
-0.2486079485
 10
0.2036920523
 20
-0.2467523243
 10
0.2069509813
 20
-0.2192732312
 10
0.211733119
 20
-0.1982981088
 10
0.2143685391
 20
-0.1912393364
 10
0.2169275246
 20
-0.1883444261
 10
0.2181222618
 20
-0.1888985677
 10
0.2192502428
 20
-0.1909160841
 10
0.2215846339
 20
-0.198063637
 10
0.2288329145
 20
-0.2141717723
 10
0.234899178
 20
-0.2174799326
 10
0.242408842
 20
-0.2167067395
 10
0.2590661819
 20
-0.2065606944
 10
0.2747813411
 20
-0.1890742551
 10
0.2799081224
 20
-0.1751646099
 10
0.2780970167
 20
-0.1729463783
 10
0.2746287114
 20
-0.171952162
 10
0.2108480741
 20
-0.1851352009
 10
0.1845204354
 20
-0.1915198427
 10
0.172013759
 20
-0.2035128311
 10
0.1860124518
 20
-0.2413463164
  0
LWPOLYLINE
  5
12D
330
1F
100
AcDbEntity
  8
0
  6
Continuous
 62
     7
100
AcDbPolyline
 90
        3
 70
   128
 43
0.0
 10
0.4845036296
 20
-0.0885529641
 10
0.6377630615
 20
-0.0324715894
 10
0.7629125282
 20
-0.0066005738
  0
LWPOLYLINE
  5
12E
330
1F
100
AcDbEntity
  8
0
  6
Continuous
 62
     7
100
AcDbPolyline
 90
        3
 70
   128
 43
0.0
 10
0.3086716875
 20
-0.1872409035
 10
0.3713845879
 20
-0.1601340321
 10
0.4219602106
 20
-0.1421294958
  0
LWPOLYLINE
  5
12F
330
1F
100
AcDbEntity
  8
0
  6
Continuous
 62
     7
100
AcDbPolyline
 90
        3
 70
   128
 43
0.0
 10
0.8342790557
 20
0.0393999097
 10
0.8519554073
 20
-0.0224111169
 10
0.8529886921
 20
-0.0733862903
  0
LWPOLYLINE
  5
130
330
1F
100
AcDbEntity
  8
0
  6
Continuous
 62
     7
100
AcDbPolyline
 90
       14
 70
   128
 43
0.0
 10
0.8529882262
 20
-0.1133934415
 10
0.9108859257
 20
-0.0947388255
 10
0.9259388944
 20
-0.0759191022
 10
0.922697652
 20
-0.055207445
 10
0.8836663708
 20
-0.0170758147
 10
0.8837941591
 20
-0.0151648425
 10
0.8852751755
 20
-0.0136208761
 10
0.9098347755
 20
-0.0062981889
 10
0.9251834162
 20
0.0090669516
 10
0.9259235626
 20
0.0310038572
 10
0.9049510708
 20
0.049553555
 10
0.8772416774
 20
0.0599472854
 10
0.8700041731
 20
0.0564896569
 10
0.8648381075
 20
0.0463566737
  0
LWPOLYLINE
  5
131
330
1F
100
AcDbEntity
  8
0
  6
Continuous
 62
     7
100
AcDbPolyline
 90
        8
 70
   128
 43
0.0
 10
0.9939373713
 20
0.0463566737
 10
0.9885930789
 20
-0.0252688818
 10
0.9957075184
 20
-0.0802203485
 10
1.013386043
 20
-0.0875029142
 10
1.0357867758
 20
-0.0832622761
 10
1.0630896079
 20
-0.0764197354
 10
1.0768517198
 20
-0.0670925657
 10
1.0755217334
 20
-0.0527564824
  0
LWPOLYLINE
  5
132
330
1F
100
AcDbEntity
  8
0
  6
Continuous
 62
     7
100
AcDbPolyline
 90
        3
 70
   128
 43
0.0
 10
0.992720052
 20
0.0
 10
1.0356027816
 20
0.0069368041
 10
1.0698326823
 20
0.0076727517
  0
LWPOLYLINE
  5
133
330
1F
100
AcDbEntity
  8
0
  6
Continuous
 62
     7
100
AcDbPolyline
 90
        3
 70
   128
 43
0.0
 10
1.008904825
 20
0.0596455506
 10
1.0538742203
 20
0.0713696056
 10
1.0925152652
 20
0.0559981897
  0
LWPOLYLINE
  5
134
330
1F
100
AcDbEntity
  8
0
  6
Continuous
 62
     7
100
AcDbPolyline
 90
       10
 70
   128
 43
0.0
 10
1.1203267912
 20
0.0463566737
 10
1.1122029171
 20
-0.060928247
 10
1.1181720345
 20
-0.0785960989
 10
1.1247691902
 20
-0.0831929691
 10
1.1336786402
 20
-0.0837590889
 10
1.1809214136
 20
-0.0699720483
 10
1.2029893414
 20
-0.0579340105
 10
1.2094973835
 20
-0.0500342633
 10
1.2083488476
 20
-0.0409865474
 10
1.188849017
 20
-0.0272797867
  0
LWPOLYLINE
  5
135
330
1F
100
AcDbEntity
  8
0
  6
Continuous
 62
     7
100
AcDbPolyline
 90
        8
 70
   128
 43
0.0
 10
1.1245519157
 20
0.0076727517
 10
1.1278554337
 20
0.0125966527
 10
1.1343823658
 20
0.0158551645
 10
1.15342373
 20
0.0191234723
 10
1.1896772591
 20
0.0248973873
 10
1.1922997783
 20
0.0272709814
 10
1.1932177749
 20
0.0303929726
 10
1.188849017
 20
0.0393999097
  0
LWPOLYLINE
  5
136
330
1F
100
AcDbEntity
  8
0
  6
Continuous
 62
     7
100
AcDbPolyline
 90
        3
 70
   128
 43
0.0
 10
1.1424808286
 20
0.0689121895
 10
1.1896910724
 20
0.0828920946
 10
1.2279564045
 20
0.0889094792
  0
LWPOLYLINE
  5
137
330
1F
100
AcDbEntity
  8
0
  6
Continuous
 62
     7
100
AcDbPolyline
 90
        3
 70
   128
 43
0.0
 10
-0.23084128
 20
-0.702455624
 10
-0.0184430528
 20
-0.698638845
 10
0.1482996175
 20
-0.691134455
  0
LWPOLYLINE
  5
138
330
1F
100
AcDbEntity
  8
0
  6
Continuous
 62
     7
100
AcDbPolyline
 90
        6
 70
   128
 43
0.0
 10
0.2714311044
 20
-0.6032642062
 10
0.2904111681
 20
-0.7299167196
 10
0.289618325
 20
-0.7341993849
 10
0.2881220741
 20
-0.7359156282
 10
0.2867337914
 20
-0.7356340004
 10
0.2740497158
 20
-0.7148679787
  0
LWPOLYLINE
  5
139
330
1F
100
AcDbEntity
  8
0
  6
Continuous
 62
     7
100
AcDbPolyline
 90
        5
 70
   128
 43
0.0
 10
0.2002619266
 20
-0.5821139035
 10
0.2673313984
 20
-0.5674295132
 10
0.3470935157
 20
-0.5537917464
 10
0.3565841953
 20
-0.5610594727
 10
0.3585349909
 20
-0.5747530577
  0
LWPOLYLINE
  5
13A
330
1F
100
AcDbEntity
  8
0
  6
Continuous
 62
     7
100
AcDbPolyline
 90
       12
 70
   128
 43
0.0
 10
0.3816067116
 20
-0.7102740771
 10
0.4217103734
 20
-0.6558226013
 10
0.4204659462
 20
-0.6461988777
 10
0.4102327827
 20
-0.6389448781
 10
0.3967233883
 20
-0.636681564
 10
0.3852411353
 20
-0.6412403718
 10
0.3701867634
 20
-0.6654124071
 10
0.3695355986
 20
-0.6926036367
 10
0.3831801642
 20
-0.7166774087
 10
0.4067428397
 20
-0.7320162077
 10
0.421526658
 20
-0.7259807238
 10
0.4347312596
 20
-0.7102740771
  0
LWPOLYLINE
  5
13B
330
1F
100
AcDbEntity
  8
0
  6
Continuous
 62
     7
100
AcDbPolyline
 90
       10
 70
   128
 43
0.0
 10
0.5213787237
 20
-0.6311934392
 10
0.4991995459
 20
-0.6324579509
 10
0.4811703332
 20
-0.6474579086
 10
0.4749465522
 20
-0.6678728525
 10
0.4829302718
 20
-0.6883274913
 10
0.4960745364
 20
-0.7076050673
 10
0.5047707057
 20
-0.7108880221
 10
0.5149242136
 20
-0.7078272808
 10
0.534180439
 20
-0.6905137321
 10
0.5426886029
 20
-0.6721307958
  0
LWPOLYLINE
  5
13C
330
1F
100
AcDbEntity
  8
0
  6
Continuous
 62
     7
100
AcDbPolyline
 90
       15
 70
   128
 43
0.0
 10
0.5684845795
 20
-0.6126875109
 10
0.570294585
 20
-0.6601932369
 10
0.5696322549
 20
-0.6859116984
 10
0.5684406305
 20
-0.7003911659
 10
0.5694940847
 20
-0.7063157329
 10
0.5728641376
 20
-0.710217595
 10
0.5810045306
 20
-0.7111939978
 10
0.5878958237
 20
-0.7075710164
 10
0.5945675107
 20
-0.6918917979
 10
0.6079562349
 20
-0.6732163159
 10
0.6176109076
 20
-0.6729840734
 10
0.6274156166
 20
-0.679058843
 10
0.6539546717
 20
-0.7141737049
 10
0.6600506973
 20
-0.7151690411
 10
0.6671830297
 20
-0.7102740771
  0
MTEXT
  5
13E
330
1F
100
AcDbEntity
  8
0
  6
Continuous
 62
     7
100
AcDbMText
 10
-1.1559807544
 20
-0.9106564682
 30
0.0
 40
0.1903
 41
0.0
 71
     1
 72
     1
  1
SOLIDWORKS Educational Product.
  7
SLDTEXTSTYLE0
 73
     1
 44
1.0
  0
MTEXT
  5
13F
330
1F
100
AcDbEntity
  8
0
  6
Continuous
 62
     7
100
AcDbMText
 10
-1.1559807544
 20
-1.1961064682
 30
0.0
 40
0.1903
 41
0.0
 71
     1
 72
     1
  1
For Instructional Use Only.
  7
SLDTEXTSTYLE0
 73
     1
 44
1.0
  0
ENDSEC
  0
SECTION
  2
OBJECTS
  0
DICTIONARY
  5
C
330
0
100
AcDbDictionary
281
     1
  3
ACAD_GROUP
350
D
  3
ACAD_LAYOUT
350
1A
  3
ACAD_MLINESTYLE
350
17
  3
ACAD_PLOTSETTINGS
350
19
  3
ACAD_PLOTSTYLENAME
350
E
  3
ACAD_SCALELIST
350
47
  0
DICTIONARY
  5
D
102
{ACAD_REACTORS
330
C
102
}
330
C
100
AcDbDictionary
281
     1
  0
DICTIONARY
  5
1A
102
{ACAD_REACTORS
330
C
102
}
330
C
100
AcDbDictionary
281
     1
  3
Layout1
350
1E
  3
Layout2
350
26
  3
Model
350
22
  0
DICTIONARY
  5
17
102
{ACAD_REACTORS
330
C
102
}
330
C
100
AcDbDictionary
281
     1
  3
Standard
350
18
  0
DICTIONARY
  5
19
102
{ACAD_REACTORS
330
C
102
}
330
C
100
AcDbDictionary
281
     1
  0
ACDBDICTIONARYWDFLT
  5
E
102
{ACAD_REACTORS
330
C
102
}
330
C
100
AcDbDictionary
281
     1
  3
Normal
350
F
100
AcDbDictionaryWithDefault
340
F
  0
DICTIONARY
  5
47
102
{ACAD_REACTORS
330
C
102
}
330
C
100
AcDbDictionary
281
     1
  3
A0
350
48
  3
A1
350
49
  3
A2
350
4A
  3
A3
350
4B
  3
A4
350
4C
  3
A5
350
4D
  3
A6
350
4E
  3
A7
350
4F
  3
A8
350
50
  3
A9
350
51
  3
B0
350
52
  3
B1
350
53
  3
B2
350
54
  3
B3
350
55
  3
B4
350
56
  3
B5
350
57
  3
B6
350
58
  3
B7
350
59
  3
B8
350
5A
  3
B9
350
5B
  3
C0
350
5C
  3
C1
350
5D
  3
C2
350
5E
  3
C3
350
5F
  3
C4
350
60
  3
C5
350
61
  3
C6
350
62
  3
C7
350
63
  3
C8
350
64
  3
C9
350
65
  3
D0
350
66
  3
D1
350
67
  3
D2
350
68
  0
LAYOUT
  5
1E
102
{ACAD_REACTORS
330
1A
102
}
330
1A
100
AcDbPlotSettings
  1

  2
none_device
  4

  6

 40
0.0
 41
0.0
 42
0.0
 43
0.0
 44
0.0
 45
0.0
 46
0.0
 47
0.0
 48
0.0
 49
0.0
140
0.0
141
0.0
142
1.0
143
1.0
 70
   688
 72
     0
 73
     0
 74
     5
  7

 75
    16
147
1.0
148
0.0
149
0.0
100
AcDbLayout
  1
Layout1
 70
     1
 71
     1
 10
0.0
 20
0.0
 11
12.0
 21
9.0
 12
0.0
 22
0.0
 32
0.0
 14
1.0000000000E+20
 24
1.0000000000E+20
 34
1.0000000000E+20
 15
-1.0000000000E+20
 25
-1.0000000000E+20
 35
-1.0000000000E+20
146
0.0
 13
0.0
 23
0.0
 33
0.0
 16
1.0
 26
0.0
 36
0.0
 17
0.0
 27
1.0
 37
0.0
 76
     0
330
1B
  0
LAYOUT
  5
26
102
{ACAD_REACTORS
330
1A
102
}
330
1A
100
AcDbPlotSettings
  1

  2
none_device
  4

  6

 40
0.0
 41
0.0
 42
0.0
 43
0.0
 44
0.0
 45
0.0
 46
0.0
 47
0.0
 48
0.0
 49
0.0
140
0.0
141
0.0
142
1.0
143
1.0
 70
   688
 72
     0
 73
     0
 74
     5
  7

 75
    16
147
1.0
148
0.0
149
0.0
100
AcDbLayout
  1
Layout2
 70
     1
 71
     2
 10
0.0
 20
0.0
 11
0.0
 21
0.0
 12
0.0
 22
0.0
 32
0.0
 14
0.0
 24
0.0
 34
0.0
 15
0.0
 25
0.0
 35
0.0
146
0.0
 13
0.0
 23
0.0
 33
0.0
 16
1.0
 26
0.0
 36
0.0
 17
0.0
 27
1.0
 37
0.0
 76
     0
330
23
  0
LAYOUT
  5
22
102
{ACAD_REACTORS
330
1A
102
}
330
1A
100
AcDbPlotSettings
  1

  2
none_device
  4
ANSI_A_(11.00_x_8.50_Inches)
  6

 40
6.35
 41
19.05
 42
6.35000508
 43
19.05000254
 44
279.4
 45
215.9
 46
129.1743637584
 47
87.4424110942
 48
0.0
 49
0.0
140
0.0
141
0.0
142
4.5680734323
143
1.0
 70
  1696
 72
     0
 73
     0
 74
     0
  7

 75
     0
147
0.5913241897
148
-39.4088153714
149
0.0
100
AcDbLayout
  1
Model
 70
     1
 71
     0
 10
0.0
 20
0.0
 11
12.0
 21
9.0
 12
0.0
 22
0.0
 32
0.0
 14
-1.1559807544
 24
-0.8705160591
 34
0.0
 15
1.2279564045
 25
0.8956405851
 35
0.0
146
0.0
 13
0.0
 23
0.0
 33
0.0
 16
1.0
 26
0.0
 36
0.0
 17
0.0
 27
1.0
 37
0.0
 76
     0
330
1F
331
29
  0
MLINESTYLE
  5
18
102
{ACAD_REACTORS
330
17
102
}
330
17
100
AcDbMlineStyle
  2
Standard
 70
     0
  3

 62
   256
 51
90.0
 52
90.0
 71
     2
 49
0.5
 62
   256
  6
BYLAYER
 49
-0.5
 62
   256
  6
BYLAYER
  0
ACDBPLACEHOLDER
  5
F
102
{ACAD_REACTORS
330
E
102
}
330
E
  0
SCALE
  5
48
102
{ACAD_REACTORS
330
47
102
}
330
47
100
AcDbScale
 70
     0
300
1:1
140
1.0
141
1.0
290
     1
  0
SCALE
  5
49
102
{ACAD_REACTORS
330
47
102
}
330
47
100
AcDbScale
 70
     0
300
1:2
140
1.0
141
2.0
290
     0
  0
SCALE
  5
4A
102
{ACAD_REACTORS
330
47
102
}
330
47
100
AcDbScale
 70
     0
300
1:4
140
1.0
141
4.0
290
     0
  0
SCALE
  5
4B
102
{ACAD_REACTORS
330
47
102
}
330
47
100
AcDbScale
 70
     0
300
1:5
140
1.0
141
5.0
290
     0
  0
SCALE
  5
4C
102
{ACAD_REACTORS
330
47
102
}
330
47
100
AcDbScale
 70
     0
300
1:8
140
1.0
141
8.0
290
     0
  0
SCALE
  5
4D
102
{ACAD_REACTORS
330
47
102
}
330
47
100
AcDbScale
 70
     0
300
1:10
140
1.0
141
10.0
290
     0
  0
SCALE
  5
4E
102
{ACAD_REACTORS
330
47
102
}
330
47
100
AcDbScale
 70
     0
300
1:16
140
1.0
141
16.0
290
     0
  0
SCALE
  5
4F
102
{ACAD_REACTORS
330
47
102
}
330
47
100
AcDbScale
 70
     0
300
1:20
140
1.0
141
20.0
290
     0
  0
SCALE
  5
50
102
{ACAD_REACTORS
330
47
102
}
330
47
100
AcDbScale
 70
     0
300
1:30
140
1.0
141
30.0
290
     0
  0
SCALE
  5
51
102
{ACAD_REACTORS
330
47
102
}
330
47
100
AcDbScale
 70
     0
300
1:40
140
1.0
141
40.0
290
     0
  0
SCALE
  5
52
102
{ACAD_REACTORS
330
47
102
}
330
47
100
AcDbScale
 70
     0
300
1:50
140
1.0
141
50.0
290
     0
  0
SCALE
  5
53
102
{ACAD_REACTORS
330
47
102
}
330
47
100
AcDbScale
 70
     0
300
1:100
140
1.0
141
100.0
290
     0
  0
SCALE
  5
54
102
{ACAD_REACTORS
330
47
102
}
330
47
100
AcDbScale
 70
     0
300
2:1
140
2.0
141
1.0
290
     0
  0
SCALE
  5
55
102
{ACAD_REACTORS
330
47
102
}
330
47
100
AcDbScale
 70
     0
300
4:1
140
4.0
141
1.0
290
     0
  0
SCALE
  5
56
102
{ACAD_REACTORS
330
47
102
}
330
47
100
AcDbScale
 70
     0
300
8:1
140
8.0
141
1.0
290
     0
  0
SCALE
  5
57
102
{ACAD_REACTORS
330
47
102
}
330
47
100
AcDbScale
 70
     0
300
10:1
140
10.0
141
1.0
290
     0
  0
SCALE
  5
58
102
{ACAD_REACTORS
330
47
102
}
330
47
100
AcDbScale
 70
     0
300
100:1
140
100.0
141
1.0
290
     0
  0
SCALE
  5
59
102
{ACAD_REACTORS
330
47
102
}
330
47
100
AcDbScale
 70
     0
300
1/128" = 1'-0"
140
0.0078125
141
12.0
290
     0
  0
SCALE
  5
5A
102
{ACAD_REACTORS
330
47
102
}
330
47
100
AcDbScale
 70
     0
300
1/64" = 1'-0"
140
0.015625
141
12.0
290
     0
  0
SCALE
  5
5B
102
{ACAD_REACTORS
330
47
102
}
330
47
100
AcDbScale
 70
     0
300
1/32" = 1'-0"
140
0.03125
141
12.0
290
     0
  0
SCALE
  5
5C
102
{ACAD_REACTORS
330
47
102
}
330
47
100
AcDbScale
 70
     0
300
1/16" = 1'-0"
140
0.0625
141
12.0
290
     0
  0
SCALE
  5
5D
102
{ACAD_REACTORS
330
47
102
}
330
47
100
AcDbScale
 70
     0
300
3/32" = 1'-0"
140
0.09375
141
12.0
290
     0
  0
SCALE
  5
5E
102
{ACAD_REACTORS
330
47
102
}
330
47
100
AcDbScale
 70
     0
300
1/8" = 1'-0"
140
0.125
141
12.0
290
     0
  0
SCALE
  5
5F
102
{ACAD_REACTORS
330
47
102
}
330
47
100
AcDbScale
 70
     0
300
3/16" = 1'-0"
140
0.1875
141
12.0
290
     0
  0
SCALE
  5
60
102
{ACAD_REACTORS
330
47
102
}
330
47
100
AcDbScale
 70
     0
300
1/4" = 1'-0"
140
0.25
141
12.0
290
     0
  0
SCALE
  5
61
102
{ACAD_REACTORS
330
47
102
}
330
47
100
AcDbScale
 70
     0
300
3/8" = 1'-0"
140
0.375
141
12.0
290
     0
  0
SCALE
  5
62
102
{ACAD_REACTORS
330
47
102
}
330
47
100
AcDbScale
 70
     0
300
1/2" = 1'-0"
140
0.5
141
12.0
290
     0
  0
SCALE
  5
63
102
{ACAD_REACTORS
330
47
102
}
330
47
100
AcDbScale
 70
     0
300
3/4" = 1'-0"
140
0.75
141
12.0
290
     0
  0
SCALE
  5
64
102
{ACAD_REACTORS
330
47
102
}
330
47
100
AcDbScale
 70
     0
300
1" = 1'-0"
140
1.0
141
12.0
290
     0
  0
SCALE
  5
65
102
{ACAD_REACTORS
330
47
102
}
330
47
100
AcDbScale
 70
     0
300
1-1/2" = 1'-0"
140
1.5
141
12.0
290
     0
  0
SCALE
  5
66
102
{ACAD_REACTORS
330
47
102
}
330
47
100
AcDbScale
 70
     0
300
3" = 1'-0"
140
3.0
141
12.0
290
     0
  0
SCALE
  5
67
102
{ACAD_REACTORS
330
47
102
}
330
47
100
AcDbScale
 70
     0
300
6" = 1'-0"
140
6.0
141
12.0
290
     0
  0
SCALE
  5
68
102
{ACAD_REACTORS
330
47
102
}
330
47
100
AcDbScale
 70
     0
300
1'-0" = 1'-0"
140
12.0
141
12.0
290
     0
  0
ENDSEC
  0
EOF
